<mxfile host="app.diagrams.net" modified="2021-06-15T21:27:25.667Z" agent="5.0 (Windows NT 6.1; WOW64) AppleWebKit/537.36 (KHTML, like Gecko) Chrome/90.0.4430.212 YaBrowser/21.5.2.644 Yowser/2.5 Safari/537.36" etag="B3DmV1_azLfuJG52QoWT" version="14.7.9" type="github">
  <diagram id="nJX8HH3Fw7ROnLO8BDh7" name="Page-1">
    <mxGraphModel dx="3693" dy="1590" grid="1" gridSize="10" guides="1" tooltips="1" connect="1" arrows="1" fold="1" page="1" pageScale="1" pageWidth="827" pageHeight="1169" math="0" shadow="0">
      <root>
        <mxCell id="0" />
        <mxCell id="1" parent="0" />
        <mxCell id="iMXSZHijQQc5wtzr5dYB-1" value="" style="endArrow=none;html=1;entryX=0.5;entryY=1;entryDx=0;entryDy=0;" parent="1" edge="1" target="iMXSZHijQQc5wtzr5dYB-27">
          <mxGeometry width="50" height="50" relative="1" as="geometry">
            <mxPoint x="200" y="680" as="sourcePoint" />
            <mxPoint x="200" y="80" as="targetPoint" />
          </mxGeometry>
        </mxCell>
        <mxCell id="iMXSZHijQQc5wtzr5dYB-3" value="" style="endArrow=none;html=1;" parent="1" edge="1">
          <mxGeometry width="50" height="50" relative="1" as="geometry">
            <mxPoint x="200" y="160" as="sourcePoint" />
            <mxPoint x="3430" y="160" as="targetPoint" />
          </mxGeometry>
        </mxCell>
        <mxCell id="iMXSZHijQQc5wtzr5dYB-4" value="" style="endArrow=none;html=1;" parent="1" edge="1">
          <mxGeometry width="50" height="50" relative="1" as="geometry">
            <mxPoint x="200" y="240" as="sourcePoint" />
            <mxPoint x="3440" y="240" as="targetPoint" />
          </mxGeometry>
        </mxCell>
        <mxCell id="iMXSZHijQQc5wtzr5dYB-8" value="" style="endArrow=none;html=1;" parent="1" edge="1">
          <mxGeometry width="50" height="50" relative="1" as="geometry">
            <mxPoint x="80" y="320" as="sourcePoint" />
            <mxPoint x="80" y="320" as="targetPoint" />
          </mxGeometry>
        </mxCell>
        <mxCell id="iMXSZHijQQc5wtzr5dYB-12" value="" style="endArrow=none;html=1;" parent="1" edge="1">
          <mxGeometry width="50" height="50" relative="1" as="geometry">
            <mxPoint x="440" y="160" as="sourcePoint" />
            <mxPoint x="440" y="120" as="targetPoint" />
          </mxGeometry>
        </mxCell>
        <mxCell id="iMXSZHijQQc5wtzr5dYB-13" value="" style="endArrow=none;html=1;" parent="1" edge="1">
          <mxGeometry width="50" height="50" relative="1" as="geometry">
            <mxPoint x="320" y="160" as="sourcePoint" />
            <mxPoint x="320" y="120" as="targetPoint" />
            <Array as="points" />
          </mxGeometry>
        </mxCell>
        <mxCell id="iMXSZHijQQc5wtzr5dYB-14" value="" style="endArrow=none;html=1;" parent="1" edge="1">
          <mxGeometry width="50" height="50" relative="1" as="geometry">
            <mxPoint x="200" y="160" as="sourcePoint" />
            <mxPoint x="200" y="120" as="targetPoint" />
          </mxGeometry>
        </mxCell>
        <mxCell id="iMXSZHijQQc5wtzr5dYB-15" value="" style="endArrow=none;html=1;" parent="1" edge="1">
          <mxGeometry width="50" height="50" relative="1" as="geometry">
            <mxPoint x="560" y="160" as="sourcePoint" />
            <mxPoint x="560" y="120" as="targetPoint" />
          </mxGeometry>
        </mxCell>
        <mxCell id="iMXSZHijQQc5wtzr5dYB-16" value="" style="endArrow=none;html=1;" parent="1" edge="1">
          <mxGeometry width="50" height="50" relative="1" as="geometry">
            <mxPoint x="680" y="160" as="sourcePoint" />
            <mxPoint x="680" y="120" as="targetPoint" />
          </mxGeometry>
        </mxCell>
        <mxCell id="iMXSZHijQQc5wtzr5dYB-17" value="" style="endArrow=none;html=1;" parent="1" edge="1">
          <mxGeometry width="50" height="50" relative="1" as="geometry">
            <mxPoint x="800" y="160" as="sourcePoint" />
            <mxPoint x="800" y="120" as="targetPoint" />
          </mxGeometry>
        </mxCell>
        <mxCell id="iMXSZHijQQc5wtzr5dYB-18" value="" style="endArrow=none;html=1;" parent="1" edge="1">
          <mxGeometry width="50" height="50" relative="1" as="geometry">
            <mxPoint x="920" y="160" as="sourcePoint" />
            <mxPoint x="920" y="120" as="targetPoint" />
          </mxGeometry>
        </mxCell>
        <mxCell id="iMXSZHijQQc5wtzr5dYB-19" value="" style="endArrow=none;html=1;" parent="1" edge="1">
          <mxGeometry width="50" height="50" relative="1" as="geometry">
            <mxPoint x="1040" y="160" as="sourcePoint" />
            <mxPoint x="1040" y="120" as="targetPoint" />
          </mxGeometry>
        </mxCell>
        <mxCell id="iMXSZHijQQc5wtzr5dYB-20" value="" style="endArrow=none;html=1;" parent="1" edge="1">
          <mxGeometry width="50" height="50" relative="1" as="geometry">
            <mxPoint x="1160" y="160" as="sourcePoint" />
            <mxPoint x="1160" y="120" as="targetPoint" />
          </mxGeometry>
        </mxCell>
        <mxCell id="iMXSZHijQQc5wtzr5dYB-21" value="" style="endArrow=none;html=1;" parent="1" edge="1">
          <mxGeometry width="50" height="50" relative="1" as="geometry">
            <mxPoint x="1280" y="160" as="sourcePoint" />
            <mxPoint x="1280" y="120" as="targetPoint" />
          </mxGeometry>
        </mxCell>
        <mxCell id="iMXSZHijQQc5wtzr5dYB-22" value="" style="endArrow=none;html=1;" parent="1" edge="1">
          <mxGeometry width="50" height="50" relative="1" as="geometry">
            <mxPoint x="1400" y="160" as="sourcePoint" />
            <mxPoint x="1400" y="120" as="targetPoint" />
          </mxGeometry>
        </mxCell>
        <mxCell id="iMXSZHijQQc5wtzr5dYB-23" value="" style="endArrow=none;html=1;startArrow=none;" parent="1" edge="1">
          <mxGeometry width="50" height="50" relative="1" as="geometry">
            <mxPoint x="1640" y="160" as="sourcePoint" />
            <mxPoint x="1640" y="120" as="targetPoint" />
          </mxGeometry>
        </mxCell>
        <mxCell id="iMXSZHijQQc5wtzr5dYB-24" value="" style="endArrow=none;html=1;" parent="1" edge="1">
          <mxGeometry width="50" height="50" relative="1" as="geometry">
            <mxPoint x="1520" y="160" as="sourcePoint" />
            <mxPoint x="1520" y="120" as="targetPoint" />
          </mxGeometry>
        </mxCell>
        <mxCell id="iMXSZHijQQc5wtzr5dYB-27" value="&lt;font color=&quot;rgba(0, 0, 0, 0)&quot; face=&quot;monospace&quot;&gt;&lt;span style=&quot;font-size: 0px&quot;&gt;3&lt;/span&gt;&lt;font style=&quot;font-size: 18px&quot;&gt;39&lt;/font&gt;&lt;/font&gt;" style="text;html=1;strokeColor=none;fillColor=none;align=center;verticalAlign=middle;whiteSpace=wrap;rounded=0;" parent="1" vertex="1">
          <mxGeometry x="180" y="90" width="40" height="20" as="geometry" />
        </mxCell>
        <mxCell id="iMXSZHijQQc5wtzr5dYB-29" value="&lt;font color=&quot;#ba0000&quot; face=&quot;monospace&quot;&gt;&lt;span style=&quot;font-size: 0px&quot;&gt;45&lt;/span&gt;&lt;font style=&quot;font-size: 18px&quot;&gt;45&lt;/font&gt;&lt;/font&gt;" style="text;html=1;strokeColor=none;fillColor=none;align=center;verticalAlign=middle;whiteSpace=wrap;rounded=0;" parent="1" vertex="1">
          <mxGeometry x="420" y="90" width="40" height="20" as="geometry" />
        </mxCell>
        <mxCell id="iMXSZHijQQc5wtzr5dYB-30" value="&lt;font size=&quot;3&quot;&gt;42&lt;/font&gt;" style="text;html=1;strokeColor=none;fillColor=none;align=center;verticalAlign=middle;whiteSpace=wrap;rounded=0;" parent="1" vertex="1">
          <mxGeometry x="300" y="90" width="40" height="20" as="geometry" />
        </mxCell>
        <mxCell id="iMXSZHijQQc5wtzr5dYB-34" value="&lt;font color=&quot;#ba0000&quot; face=&quot;monospace&quot;&gt;&lt;span style=&quot;font-size: 0px&quot;&gt;48&lt;/span&gt;&lt;font style=&quot;font-size: 18px&quot;&gt;48&lt;/font&gt;&lt;/font&gt;" style="text;html=1;strokeColor=none;fillColor=none;align=center;verticalAlign=middle;whiteSpace=wrap;rounded=0;" parent="1" vertex="1">
          <mxGeometry x="540" y="90" width="40" height="20" as="geometry" />
        </mxCell>
        <mxCell id="iMXSZHijQQc5wtzr5dYB-35" value="&lt;font color=&quot;#ba0000&quot; face=&quot;monospace&quot;&gt;&lt;span style=&quot;font-size: 0px&quot;&gt;57&lt;/span&gt;&lt;font size=&quot;3&quot;&gt;57&lt;/font&gt;&lt;/font&gt;" style="text;html=1;strokeColor=none;fillColor=none;align=center;verticalAlign=middle;whiteSpace=wrap;rounded=0;" parent="1" vertex="1">
          <mxGeometry x="900" y="90" width="40" height="20" as="geometry" />
        </mxCell>
        <mxCell id="iMXSZHijQQc5wtzr5dYB-36" value="&lt;font color=&quot;#ba0000&quot; face=&quot;monospace&quot;&gt;&lt;span style=&quot;font-size: 14px&quot;&gt;54&lt;/span&gt;&lt;/font&gt;" style="text;html=1;strokeColor=none;fillColor=none;align=center;verticalAlign=middle;whiteSpace=wrap;rounded=0;" parent="1" vertex="1">
          <mxGeometry x="780" y="90" width="40" height="20" as="geometry" />
        </mxCell>
        <mxCell id="iMXSZHijQQc5wtzr5dYB-37" value="&lt;font color=&quot;#ba0000&quot; face=&quot;monospace&quot;&gt;&lt;span style=&quot;font-size: 0px&quot;&gt;5&lt;/span&gt;&lt;font style=&quot;font-size: 18px&quot;&gt;51&lt;/font&gt;&lt;/font&gt;" style="text;html=1;strokeColor=none;fillColor=none;align=center;verticalAlign=middle;whiteSpace=wrap;rounded=0;" parent="1" vertex="1">
          <mxGeometry x="660" y="90" width="40" height="20" as="geometry" />
        </mxCell>
        <mxCell id="iMXSZHijQQc5wtzr5dYB-40" value="&lt;font color=&quot;#ba0000&quot; face=&quot;monospace&quot;&gt;&lt;span style=&quot;font-size: 0px&quot;&gt;66&lt;/span&gt;&lt;font size=&quot;3&quot;&gt;66&lt;/font&gt;&lt;/font&gt;" style="text;html=1;strokeColor=none;fillColor=none;align=center;verticalAlign=middle;whiteSpace=wrap;rounded=0;" parent="1" vertex="1">
          <mxGeometry x="1260" y="90" width="40" height="20" as="geometry" />
        </mxCell>
        <mxCell id="iMXSZHijQQc5wtzr5dYB-41" value="&lt;font color=&quot;#ba0000&quot; face=&quot;monospace&quot;&gt;&lt;span style=&quot;font-size: 0px&quot;&gt;6&lt;/span&gt;&lt;font size=&quot;3&quot;&gt;63&lt;/font&gt;&lt;/font&gt;" style="text;html=1;strokeColor=none;fillColor=none;align=center;verticalAlign=middle;whiteSpace=wrap;rounded=0;" parent="1" vertex="1">
          <mxGeometry x="1140" y="90" width="40" height="20" as="geometry" />
        </mxCell>
        <mxCell id="iMXSZHijQQc5wtzr5dYB-42" value="&lt;font color=&quot;#ba0000&quot; face=&quot;monospace&quot;&gt;&lt;span style=&quot;font-size: 0px&quot;&gt;6&lt;/span&gt;&lt;font size=&quot;3&quot;&gt;60&lt;/font&gt;&lt;/font&gt;" style="text;html=1;strokeColor=none;fillColor=none;align=center;verticalAlign=middle;whiteSpace=wrap;rounded=0;" parent="1" vertex="1">
          <mxGeometry x="1020" y="90" width="40" height="20" as="geometry" />
        </mxCell>
        <mxCell id="iMXSZHijQQc5wtzr5dYB-43" value="&lt;font color=&quot;#ba0000&quot; face=&quot;monospace&quot;&gt;&lt;font style=&quot;font-size: 18px&quot;&gt;75&lt;/font&gt;&lt;/font&gt;" style="text;html=1;strokeColor=none;fillColor=none;align=center;verticalAlign=middle;whiteSpace=wrap;rounded=0;" parent="1" vertex="1">
          <mxGeometry x="1620" y="90" width="40" height="20" as="geometry" />
        </mxCell>
        <mxCell id="iMXSZHijQQc5wtzr5dYB-44" value="&lt;font color=&quot;#ba0000&quot; face=&quot;monospace&quot;&gt;&lt;span style=&quot;font-size: 0px&quot;&gt;72&lt;/span&gt;&lt;font size=&quot;3&quot;&gt;72&lt;/font&gt;&lt;/font&gt;" style="text;html=1;strokeColor=none;fillColor=none;align=center;verticalAlign=middle;whiteSpace=wrap;rounded=0;" parent="1" vertex="1">
          <mxGeometry x="1500" y="90" width="40" height="20" as="geometry" />
        </mxCell>
        <mxCell id="iMXSZHijQQc5wtzr5dYB-46" value="" style="endArrow=none;html=1;" parent="1" edge="1">
          <mxGeometry width="50" height="50" relative="1" as="geometry">
            <mxPoint x="200" y="240" as="sourcePoint" />
            <mxPoint x="200" y="200" as="targetPoint" />
          </mxGeometry>
        </mxCell>
        <mxCell id="iMXSZHijQQc5wtzr5dYB-47" value="" style="endArrow=none;html=1;" parent="1" edge="1">
          <mxGeometry width="50" height="50" relative="1" as="geometry">
            <mxPoint x="679.29" y="240" as="sourcePoint" />
            <mxPoint x="679.29" y="200" as="targetPoint" />
          </mxGeometry>
        </mxCell>
        <mxCell id="iMXSZHijQQc5wtzr5dYB-49" value="" style="endArrow=none;html=1;" parent="1" edge="1">
          <mxGeometry width="50" height="50" relative="1" as="geometry">
            <mxPoint x="559.17" y="240" as="sourcePoint" />
            <mxPoint x="559.17" y="200" as="targetPoint" />
          </mxGeometry>
        </mxCell>
        <mxCell id="iMXSZHijQQc5wtzr5dYB-50" value="" style="endArrow=none;html=1;" parent="1" edge="1">
          <mxGeometry width="50" height="50" relative="1" as="geometry">
            <mxPoint x="439.28999999999996" y="240" as="sourcePoint" />
            <mxPoint x="439.28999999999996" y="200" as="targetPoint" />
          </mxGeometry>
        </mxCell>
        <mxCell id="iMXSZHijQQc5wtzr5dYB-51" value="" style="endArrow=none;html=1;" parent="1" edge="1">
          <mxGeometry width="50" height="50" relative="1" as="geometry">
            <mxPoint x="319.29" y="240" as="sourcePoint" />
            <mxPoint x="319.29" y="200" as="targetPoint" />
          </mxGeometry>
        </mxCell>
        <mxCell id="iMXSZHijQQc5wtzr5dYB-52" value="" style="rounded=0;whiteSpace=wrap;html=1;" parent="1" vertex="1">
          <mxGeometry x="200" y="280" width="160" height="40" as="geometry" />
        </mxCell>
        <mxCell id="iMXSZHijQQc5wtzr5dYB-53" value="" style="rounded=0;whiteSpace=wrap;html=1;" parent="1" vertex="1">
          <mxGeometry x="360" y="280" width="160" height="40" as="geometry" />
        </mxCell>
        <mxCell id="iMXSZHijQQc5wtzr5dYB-54" value="&lt;font style=&quot;font-size: 36px&quot;&gt;10&lt;/font&gt;" style="text;html=1;strokeColor=none;fillColor=none;align=center;verticalAlign=middle;whiteSpace=wrap;rounded=0;" parent="1" vertex="1">
          <mxGeometry x="210" y="290" width="40" height="20" as="geometry" />
        </mxCell>
        <mxCell id="iMXSZHijQQc5wtzr5dYB-55" value="" style="rounded=0;whiteSpace=wrap;html=1;" parent="1" vertex="1">
          <mxGeometry x="1000" y="280" width="160" height="40" as="geometry" />
        </mxCell>
        <mxCell id="iMXSZHijQQc5wtzr5dYB-56" value="" style="rounded=0;whiteSpace=wrap;html=1;" parent="1" vertex="1">
          <mxGeometry x="840" y="280" width="160" height="40" as="geometry" />
        </mxCell>
        <mxCell id="iMXSZHijQQc5wtzr5dYB-57" value="" style="rounded=0;whiteSpace=wrap;html=1;" parent="1" vertex="1">
          <mxGeometry x="680" y="280" width="160" height="40" as="geometry" />
        </mxCell>
        <mxCell id="iMXSZHijQQc5wtzr5dYB-58" value="" style="rounded=0;whiteSpace=wrap;html=1;" parent="1" vertex="1">
          <mxGeometry x="520" y="280" width="160" height="40" as="geometry" />
        </mxCell>
        <mxCell id="iMXSZHijQQc5wtzr5dYB-59" value="" style="rounded=0;whiteSpace=wrap;html=1;" parent="1" vertex="1">
          <mxGeometry x="1160" y="280" width="160" height="40" as="geometry" />
        </mxCell>
        <mxCell id="iMXSZHijQQc5wtzr5dYB-60" value="" style="rounded=0;whiteSpace=wrap;html=1;" parent="1" vertex="1">
          <mxGeometry x="1320" y="280" width="160" height="40" as="geometry" />
        </mxCell>
        <mxCell id="iMXSZHijQQc5wtzr5dYB-61" value="" style="rounded=0;whiteSpace=wrap;html=1;" parent="1" vertex="1">
          <mxGeometry x="1480" y="280" width="160" height="40" as="geometry" />
        </mxCell>
        <mxCell id="iMXSZHijQQc5wtzr5dYB-63" value="" style="endArrow=none;html=1;" parent="1" edge="1">
          <mxGeometry width="50" height="50" relative="1" as="geometry">
            <mxPoint x="200" y="400" as="sourcePoint" />
            <mxPoint x="1660" y="400" as="targetPoint" />
          </mxGeometry>
        </mxCell>
        <mxCell id="iMXSZHijQQc5wtzr5dYB-69" value="" style="endArrow=none;html=1;startArrow=none;exitX=1;exitY=1;exitDx=0;exitDy=0;" parent="1" source="vV5gT7rGuwCmQTf4k3ZP-75" edge="1">
          <mxGeometry width="50" height="50" relative="1" as="geometry">
            <mxPoint x="200" y="480" as="sourcePoint" />
            <mxPoint x="3440" y="480" as="targetPoint" />
          </mxGeometry>
        </mxCell>
        <mxCell id="iMXSZHijQQc5wtzr5dYB-70" value="&lt;font style=&quot;font-size: 36px&quot;&gt;11&lt;/font&gt;" style="text;html=1;strokeColor=none;fillColor=none;align=center;verticalAlign=middle;whiteSpace=wrap;rounded=0;" parent="1" vertex="1">
          <mxGeometry x="374" y="290" width="40" height="20" as="geometry" />
        </mxCell>
        <mxCell id="iMXSZHijQQc5wtzr5dYB-71" value="&lt;span style=&quot;font-size: 36px&quot;&gt;12&lt;/span&gt;" style="text;html=1;strokeColor=none;fillColor=none;align=center;verticalAlign=middle;whiteSpace=wrap;rounded=0;" parent="1" vertex="1">
          <mxGeometry x="530" y="290" width="40" height="20" as="geometry" />
        </mxCell>
        <mxCell id="iMXSZHijQQc5wtzr5dYB-72" value="&lt;font style=&quot;font-size: 36px&quot;&gt;13&lt;/font&gt;" style="text;html=1;strokeColor=none;fillColor=none;align=center;verticalAlign=middle;whiteSpace=wrap;rounded=0;" parent="1" vertex="1">
          <mxGeometry x="690" y="290" width="40" height="20" as="geometry" />
        </mxCell>
        <mxCell id="iMXSZHijQQc5wtzr5dYB-73" value="&lt;font style=&quot;font-size: 36px&quot;&gt;14&lt;/font&gt;" style="text;html=1;strokeColor=none;fillColor=none;align=center;verticalAlign=middle;whiteSpace=wrap;rounded=0;" parent="1" vertex="1">
          <mxGeometry x="860" y="290" width="40" height="20" as="geometry" />
        </mxCell>
        <mxCell id="iMXSZHijQQc5wtzr5dYB-78" value="" style="rounded=0;whiteSpace=wrap;html=1;" parent="1" vertex="1">
          <mxGeometry x="200" y="360" width="640" height="40" as="geometry" />
        </mxCell>
        <mxCell id="iMXSZHijQQc5wtzr5dYB-80" value="" style="rounded=0;whiteSpace=wrap;html=1;" parent="1" vertex="1">
          <mxGeometry x="840" y="360" width="640" height="40" as="geometry" />
        </mxCell>
        <mxCell id="iMXSZHijQQc5wtzr5dYB-87" value="" style="endArrow=none;html=1;" parent="1" edge="1">
          <mxGeometry width="50" height="50" relative="1" as="geometry">
            <mxPoint x="1399.29" y="240" as="sourcePoint" />
            <mxPoint x="1399.29" y="200" as="targetPoint" />
          </mxGeometry>
        </mxCell>
        <mxCell id="iMXSZHijQQc5wtzr5dYB-88" value="" style="endArrow=none;html=1;" parent="1" edge="1">
          <mxGeometry width="50" height="50" relative="1" as="geometry">
            <mxPoint x="1279" y="240" as="sourcePoint" />
            <mxPoint x="1279" y="200" as="targetPoint" />
          </mxGeometry>
        </mxCell>
        <mxCell id="iMXSZHijQQc5wtzr5dYB-89" value="" style="endArrow=none;html=1;" parent="1" edge="1">
          <mxGeometry width="50" height="50" relative="1" as="geometry">
            <mxPoint x="1160" y="240" as="sourcePoint" />
            <mxPoint x="1161" y="200" as="targetPoint" />
          </mxGeometry>
        </mxCell>
        <mxCell id="iMXSZHijQQc5wtzr5dYB-90" value="" style="endArrow=none;html=1;" parent="1" edge="1">
          <mxGeometry width="50" height="50" relative="1" as="geometry">
            <mxPoint x="1039.29" y="240" as="sourcePoint" />
            <mxPoint x="1039.29" y="200" as="targetPoint" />
          </mxGeometry>
        </mxCell>
        <mxCell id="iMXSZHijQQc5wtzr5dYB-91" value="" style="endArrow=none;html=1;" parent="1" edge="1">
          <mxGeometry width="50" height="50" relative="1" as="geometry">
            <mxPoint x="919.29" y="240" as="sourcePoint" />
            <mxPoint x="919.29" y="200" as="targetPoint" />
          </mxGeometry>
        </mxCell>
        <mxCell id="iMXSZHijQQc5wtzr5dYB-92" value="" style="endArrow=none;html=1;" parent="1" edge="1">
          <mxGeometry width="50" height="50" relative="1" as="geometry">
            <mxPoint x="799" y="240" as="sourcePoint" />
            <mxPoint x="799" y="200" as="targetPoint" />
          </mxGeometry>
        </mxCell>
        <mxCell id="iMXSZHijQQc5wtzr5dYB-93" value="" style="endArrow=none;html=1;" parent="1" edge="1">
          <mxGeometry width="50" height="50" relative="1" as="geometry">
            <mxPoint x="1638.57" y="240" as="sourcePoint" />
            <mxPoint x="1638.57" y="200" as="targetPoint" />
          </mxGeometry>
        </mxCell>
        <mxCell id="iMXSZHijQQc5wtzr5dYB-94" value="" style="endArrow=none;html=1;" parent="1" edge="1">
          <mxGeometry width="50" height="50" relative="1" as="geometry">
            <mxPoint x="1519.29" y="240" as="sourcePoint" />
            <mxPoint x="1519.29" y="200" as="targetPoint" />
          </mxGeometry>
        </mxCell>
        <mxCell id="iMXSZHijQQc5wtzr5dYB-100" value="" style="endArrow=none;html=1;" parent="1" edge="1">
          <mxGeometry width="50" height="50" relative="1" as="geometry">
            <mxPoint x="200" y="600" as="sourcePoint" />
            <mxPoint x="3440" y="600" as="targetPoint" />
          </mxGeometry>
        </mxCell>
        <mxCell id="iMXSZHijQQc5wtzr5dYB-102" value="" style="endArrow=none;html=1;" parent="1" edge="1">
          <mxGeometry width="50" height="50" relative="1" as="geometry">
            <mxPoint x="840" y="560" as="sourcePoint" />
            <mxPoint x="840" y="520" as="targetPoint" />
            <Array as="points">
              <mxPoint x="840" y="550" />
            </Array>
          </mxGeometry>
        </mxCell>
        <mxCell id="iMXSZHijQQc5wtzr5dYB-103" value="" style="endArrow=none;html=1;" parent="1" edge="1">
          <mxGeometry width="50" height="50" relative="1" as="geometry">
            <mxPoint x="518.3299999999999" y="605" as="sourcePoint" />
            <mxPoint x="518.3299999999999" y="565" as="targetPoint" />
          </mxGeometry>
        </mxCell>
        <mxCell id="iMXSZHijQQc5wtzr5dYB-104" value="" style="endArrow=none;html=1;" parent="1" edge="1">
          <mxGeometry width="50" height="50" relative="1" as="geometry">
            <mxPoint x="1480.0000000000002" y="560" as="sourcePoint" />
            <mxPoint x="1480.0000000000002" y="520" as="targetPoint" />
          </mxGeometry>
        </mxCell>
        <mxCell id="iMXSZHijQQc5wtzr5dYB-106" value="" style="endArrow=none;html=1;" parent="1" edge="1">
          <mxGeometry width="50" height="50" relative="1" as="geometry">
            <mxPoint x="2120" y="560" as="sourcePoint" />
            <mxPoint x="2120" y="520" as="targetPoint" />
          </mxGeometry>
        </mxCell>
        <mxCell id="iMXSZHijQQc5wtzr5dYB-108" value="" style="endArrow=none;html=1;" parent="1" edge="1">
          <mxGeometry width="50" height="50" relative="1" as="geometry">
            <mxPoint x="1321" y="600" as="sourcePoint" />
            <mxPoint x="1321.0000000000002" y="555" as="targetPoint" />
          </mxGeometry>
        </mxCell>
        <mxCell id="iMXSZHijQQc5wtzr5dYB-110" value="" style="endArrow=none;html=1;" parent="1" edge="1">
          <mxGeometry width="50" height="50" relative="1" as="geometry">
            <mxPoint x="2760" y="600" as="sourcePoint" />
            <mxPoint x="2760" y="555" as="targetPoint" />
          </mxGeometry>
        </mxCell>
        <mxCell id="iMXSZHijQQc5wtzr5dYB-111" value="" style="endArrow=none;html=1;" parent="1" edge="1">
          <mxGeometry width="50" height="50" relative="1" as="geometry">
            <mxPoint x="1960.43" y="595" as="sourcePoint" />
            <mxPoint x="1960" y="555" as="targetPoint" />
          </mxGeometry>
        </mxCell>
        <mxCell id="vV5gT7rGuwCmQTf4k3ZP-3" value="&lt;font size=&quot;3&quot;&gt;69&lt;/font&gt;" style="text;html=1;strokeColor=none;fillColor=none;align=center;verticalAlign=middle;whiteSpace=wrap;rounded=0;" vertex="1" parent="1">
          <mxGeometry x="1380" y="90" width="40" height="20" as="geometry" />
        </mxCell>
        <mxCell id="vV5gT7rGuwCmQTf4k3ZP-6" value="" style="endArrow=none;html=1;" edge="1" parent="1">
          <mxGeometry width="50" height="50" relative="1" as="geometry">
            <mxPoint x="200" y="680" as="sourcePoint" />
            <mxPoint x="3440" y="680" as="targetPoint" />
          </mxGeometry>
        </mxCell>
        <mxCell id="vV5gT7rGuwCmQTf4k3ZP-9" value="" style="endArrow=none;html=1;" edge="1" parent="1">
          <mxGeometry width="50" height="50" relative="1" as="geometry">
            <mxPoint x="200" y="440" as="sourcePoint" />
            <mxPoint x="520" y="440" as="targetPoint" />
          </mxGeometry>
        </mxCell>
        <mxCell id="vV5gT7rGuwCmQTf4k3ZP-10" value="" style="endArrow=none;html=1;" edge="1" parent="1">
          <mxGeometry width="50" height="50" relative="1" as="geometry">
            <mxPoint x="520" y="480" as="sourcePoint" />
            <mxPoint x="520" y="440" as="targetPoint" />
          </mxGeometry>
        </mxCell>
        <mxCell id="vV5gT7rGuwCmQTf4k3ZP-11" value="" style="rounded=0;whiteSpace=wrap;html=1;" vertex="1" parent="1">
          <mxGeometry x="520" y="440" width="719" height="40" as="geometry" />
        </mxCell>
        <mxCell id="vV5gT7rGuwCmQTf4k3ZP-13" value="" style="rounded=0;whiteSpace=wrap;html=1;" vertex="1" parent="1">
          <mxGeometry x="1640" y="280" width="160" height="40" as="geometry" />
        </mxCell>
        <mxCell id="vV5gT7rGuwCmQTf4k3ZP-14" value="" style="rounded=0;whiteSpace=wrap;html=1;" vertex="1" parent="1">
          <mxGeometry x="1800" y="280" width="160" height="40" as="geometry" />
        </mxCell>
        <mxCell id="vV5gT7rGuwCmQTf4k3ZP-15" value="" style="rounded=0;whiteSpace=wrap;html=1;" vertex="1" parent="1">
          <mxGeometry x="1960" y="280" width="160" height="40" as="geometry" />
        </mxCell>
        <mxCell id="vV5gT7rGuwCmQTf4k3ZP-16" value="" style="rounded=0;whiteSpace=wrap;html=1;" vertex="1" parent="1">
          <mxGeometry x="2120" y="280" width="160" height="40" as="geometry" />
        </mxCell>
        <mxCell id="vV5gT7rGuwCmQTf4k3ZP-17" value="" style="rounded=0;whiteSpace=wrap;html=1;" vertex="1" parent="1">
          <mxGeometry x="2280" y="280" width="160" height="40" as="geometry" />
        </mxCell>
        <mxCell id="vV5gT7rGuwCmQTf4k3ZP-20" value="" style="rounded=0;whiteSpace=wrap;html=1;" vertex="1" parent="1">
          <mxGeometry x="2440" y="280" width="160" height="40" as="geometry" />
        </mxCell>
        <mxCell id="vV5gT7rGuwCmQTf4k3ZP-21" value="" style="rounded=0;whiteSpace=wrap;html=1;" vertex="1" parent="1">
          <mxGeometry x="2600" y="280" width="160" height="40" as="geometry" />
        </mxCell>
        <mxCell id="vV5gT7rGuwCmQTf4k3ZP-22" value="" style="rounded=0;whiteSpace=wrap;html=1;" vertex="1" parent="1">
          <mxGeometry x="2760" y="280" width="160" height="40" as="geometry" />
        </mxCell>
        <mxCell id="vV5gT7rGuwCmQTf4k3ZP-23" value="" style="rounded=0;whiteSpace=wrap;html=1;" vertex="1" parent="1">
          <mxGeometry x="2920" y="280" width="160" height="40" as="geometry" />
        </mxCell>
        <mxCell id="vV5gT7rGuwCmQTf4k3ZP-25" value="" style="rounded=0;whiteSpace=wrap;html=1;" vertex="1" parent="1">
          <mxGeometry x="3080" y="280" width="160" height="40" as="geometry" />
        </mxCell>
        <mxCell id="vV5gT7rGuwCmQTf4k3ZP-26" value="&lt;font style=&quot;font-size: 36px&quot;&gt;15&lt;/font&gt;" style="text;html=1;strokeColor=none;fillColor=none;align=center;verticalAlign=middle;whiteSpace=wrap;rounded=0;" vertex="1" parent="1">
          <mxGeometry x="1020" y="290" width="40" height="20" as="geometry" />
        </mxCell>
        <mxCell id="vV5gT7rGuwCmQTf4k3ZP-27" value="&lt;font style=&quot;font-size: 36px&quot;&gt;18&lt;/font&gt;" style="text;html=1;strokeColor=none;fillColor=none;align=center;verticalAlign=middle;whiteSpace=wrap;rounded=0;" vertex="1" parent="1">
          <mxGeometry x="1500" y="290" width="40" height="20" as="geometry" />
        </mxCell>
        <mxCell id="vV5gT7rGuwCmQTf4k3ZP-28" value="&lt;font style=&quot;font-size: 36px&quot;&gt;17&lt;/font&gt;" style="text;html=1;strokeColor=none;fillColor=none;align=center;verticalAlign=middle;whiteSpace=wrap;rounded=0;" vertex="1" parent="1">
          <mxGeometry x="1340" y="290" width="40" height="20" as="geometry" />
        </mxCell>
        <mxCell id="vV5gT7rGuwCmQTf4k3ZP-29" value="&lt;font style=&quot;font-size: 36px&quot;&gt;16&lt;/font&gt;" style="text;html=1;strokeColor=none;fillColor=none;align=center;verticalAlign=middle;whiteSpace=wrap;rounded=0;" vertex="1" parent="1">
          <mxGeometry x="1180" y="290" width="40" height="20" as="geometry" />
        </mxCell>
        <mxCell id="vV5gT7rGuwCmQTf4k3ZP-32" value="&lt;font style=&quot;font-size: 36px&quot;&gt;22&lt;/font&gt;" style="text;html=1;strokeColor=none;fillColor=none;align=center;verticalAlign=middle;whiteSpace=wrap;rounded=0;" vertex="1" parent="1">
          <mxGeometry x="2130" y="290" width="40" height="20" as="geometry" />
        </mxCell>
        <mxCell id="vV5gT7rGuwCmQTf4k3ZP-33" value="&lt;font style=&quot;font-size: 36px&quot;&gt;21&lt;/font&gt;" style="text;html=1;strokeColor=none;fillColor=none;align=center;verticalAlign=middle;whiteSpace=wrap;rounded=0;" vertex="1" parent="1">
          <mxGeometry x="1970" y="290" width="40" height="20" as="geometry" />
        </mxCell>
        <mxCell id="vV5gT7rGuwCmQTf4k3ZP-34" value="&lt;font style=&quot;font-size: 36px&quot;&gt;20&lt;/font&gt;" style="text;html=1;strokeColor=none;fillColor=none;align=center;verticalAlign=middle;whiteSpace=wrap;rounded=0;" vertex="1" parent="1">
          <mxGeometry x="1820" y="290" width="40" height="20" as="geometry" />
        </mxCell>
        <mxCell id="vV5gT7rGuwCmQTf4k3ZP-35" value="&lt;font style=&quot;font-size: 36px&quot;&gt;19&lt;/font&gt;" style="text;html=1;strokeColor=none;fillColor=none;align=center;verticalAlign=middle;whiteSpace=wrap;rounded=0;" vertex="1" parent="1">
          <mxGeometry x="1654" y="290" width="40" height="20" as="geometry" />
        </mxCell>
        <mxCell id="vV5gT7rGuwCmQTf4k3ZP-37" value="&lt;font style=&quot;font-size: 36px&quot;&gt;26&lt;/font&gt;" style="text;html=1;strokeColor=none;fillColor=none;align=center;verticalAlign=middle;whiteSpace=wrap;rounded=0;" vertex="1" parent="1">
          <mxGeometry x="2780" y="290" width="40" height="20" as="geometry" />
        </mxCell>
        <mxCell id="vV5gT7rGuwCmQTf4k3ZP-38" value="&lt;font style=&quot;font-size: 36px&quot;&gt;25&lt;/font&gt;" style="text;html=1;strokeColor=none;fillColor=none;align=center;verticalAlign=middle;whiteSpace=wrap;rounded=0;" vertex="1" parent="1">
          <mxGeometry x="2620" y="290" width="40" height="20" as="geometry" />
        </mxCell>
        <mxCell id="vV5gT7rGuwCmQTf4k3ZP-39" value="&lt;font style=&quot;font-size: 36px&quot;&gt;24&lt;/font&gt;" style="text;html=1;strokeColor=none;fillColor=none;align=center;verticalAlign=middle;whiteSpace=wrap;rounded=0;" vertex="1" parent="1">
          <mxGeometry x="2460" y="290" width="40" height="20" as="geometry" />
        </mxCell>
        <mxCell id="vV5gT7rGuwCmQTf4k3ZP-40" value="&lt;font style=&quot;font-size: 36px&quot;&gt;23&lt;/font&gt;" style="text;html=1;strokeColor=none;fillColor=none;align=center;verticalAlign=middle;whiteSpace=wrap;rounded=0;" vertex="1" parent="1">
          <mxGeometry x="2300" y="290" width="40" height="20" as="geometry" />
        </mxCell>
        <mxCell id="vV5gT7rGuwCmQTf4k3ZP-43" value="&lt;font style=&quot;font-size: 36px&quot;&gt;28&lt;/font&gt;" style="text;html=1;strokeColor=none;fillColor=none;align=center;verticalAlign=middle;whiteSpace=wrap;rounded=0;" vertex="1" parent="1">
          <mxGeometry x="3100" y="290" width="40" height="20" as="geometry" />
        </mxCell>
        <mxCell id="vV5gT7rGuwCmQTf4k3ZP-44" value="&lt;font style=&quot;font-size: 36px&quot;&gt;27&lt;/font&gt;" style="text;html=1;strokeColor=none;fillColor=none;align=center;verticalAlign=middle;whiteSpace=wrap;rounded=0;" vertex="1" parent="1">
          <mxGeometry x="2930" y="290" width="40" height="20" as="geometry" />
        </mxCell>
        <mxCell id="vV5gT7rGuwCmQTf4k3ZP-45" value="&lt;font style=&quot;font-size: 36px&quot;&gt;5&lt;/font&gt;" style="text;html=1;strokeColor=none;fillColor=none;align=center;verticalAlign=middle;whiteSpace=wrap;rounded=0;" vertex="1" parent="1">
          <mxGeometry x="260" y="370" width="40" height="20" as="geometry" />
        </mxCell>
        <mxCell id="vV5gT7rGuwCmQTf4k3ZP-46" value="&lt;font style=&quot;font-size: 36px&quot;&gt;6&lt;/font&gt;&lt;span style=&quot;color: rgba(0 , 0 , 0 , 0) ; font-family: monospace ; font-size: 0px&quot;&gt;%3CmxGraphModel%3E%3Croot%3E%3CmxCell%20id%3D%220%22%2F%3E%3CmxCell%20id%3D%221%22%20parent%3D%220%22%2F%3E%3CmxCell%20id%3D%222%22%20value%3D%22%26lt%3Bfont%20style%3D%26quot%3Bfont-size%3A%2036px%26quot%3B%26gt%3B5%26lt%3B%2Ffont%26gt%3B%22%20style%3D%22text%3Bhtml%3D1%3BstrokeColor%3Dnone%3BfillColor%3Dnone%3Balign%3Dcenter%3BverticalAlign%3Dmiddle%3BwhiteSpace%3Dwrap%3Brounded%3D0%3B%22%20vertex%3D%221%22%20parent%3D%221%22%3E%3CmxGeometry%20x%3D%22340%22%20y%3D%22370%22%20width%3D%2240%22%20height%3D%2220%22%20as%3D%22geometry%22%2F%3E%3C%2FmxCell%3E%3C%2Froot%3E%3C%2FmxGraphModel%3E&lt;/span&gt;" style="text;html=1;strokeColor=none;fillColor=none;align=center;verticalAlign=middle;whiteSpace=wrap;rounded=0;" vertex="1" parent="1">
          <mxGeometry x="920" y="370" width="40" height="20" as="geometry" />
        </mxCell>
        <mxCell id="vV5gT7rGuwCmQTf4k3ZP-47" value="&lt;font style=&quot;font-size: 36px&quot;&gt;7&lt;/font&gt;" style="text;html=1;strokeColor=none;fillColor=none;align=center;verticalAlign=middle;whiteSpace=wrap;rounded=0;" vertex="1" parent="1">
          <mxGeometry x="550" y="450" width="40" height="20" as="geometry" />
        </mxCell>
        <mxCell id="vV5gT7rGuwCmQTf4k3ZP-48" value="&lt;font style=&quot;font-size: 36px&quot;&gt;4&lt;/font&gt;" style="text;html=1;strokeColor=none;fillColor=none;align=center;verticalAlign=middle;whiteSpace=wrap;rounded=0;" vertex="1" parent="1">
          <mxGeometry x="240" y="450" width="40" height="20" as="geometry" />
        </mxCell>
        <mxCell id="vV5gT7rGuwCmQTf4k3ZP-53" value="&lt;font style=&quot;font-size: 36px&quot;&gt;П1&lt;/font&gt;" style="text;html=1;strokeColor=none;fillColor=none;align=center;verticalAlign=middle;whiteSpace=wrap;rounded=0;" vertex="1" parent="1">
          <mxGeometry x="150" y="370" width="40" height="20" as="geometry" />
        </mxCell>
        <mxCell id="vV5gT7rGuwCmQTf4k3ZP-54" value="&lt;font style=&quot;font-size: 36px&quot;&gt;К&lt;/font&gt;" style="text;html=1;strokeColor=none;fillColor=none;align=center;verticalAlign=middle;whiteSpace=wrap;rounded=0;" vertex="1" parent="1">
          <mxGeometry x="150" y="300" width="40" height="20" as="geometry" />
        </mxCell>
        <mxCell id="vV5gT7rGuwCmQTf4k3ZP-55" value="&lt;font style=&quot;font-size: 36px&quot;&gt;И&lt;/font&gt;" style="text;html=1;strokeColor=none;fillColor=none;align=center;verticalAlign=middle;whiteSpace=wrap;rounded=0;" vertex="1" parent="1">
          <mxGeometry x="150" y="220" width="40" height="20" as="geometry" />
        </mxCell>
        <mxCell id="vV5gT7rGuwCmQTf4k3ZP-58" value="&lt;font style=&quot;font-size: 36px&quot;&gt;О&lt;/font&gt;" style="text;html=1;strokeColor=none;fillColor=none;align=center;verticalAlign=middle;whiteSpace=wrap;rounded=0;" vertex="1" parent="1">
          <mxGeometry x="150" y="575" width="40" height="20" as="geometry" />
        </mxCell>
        <mxCell id="vV5gT7rGuwCmQTf4k3ZP-59" value="&lt;font style=&quot;font-size: 36px&quot;&gt;ОТК&lt;/font&gt;" style="text;html=1;strokeColor=none;fillColor=none;align=center;verticalAlign=middle;whiteSpace=wrap;rounded=0;" vertex="1" parent="1">
          <mxGeometry x="130" y="650" width="40" height="20" as="geometry" />
        </mxCell>
        <mxCell id="vV5gT7rGuwCmQTf4k3ZP-60" value="&lt;font style=&quot;font-size: 36px&quot;&gt;П2&lt;/font&gt;" style="text;html=1;strokeColor=none;fillColor=none;align=center;verticalAlign=middle;whiteSpace=wrap;rounded=0;" vertex="1" parent="1">
          <mxGeometry x="150" y="450" width="40" height="20" as="geometry" />
        </mxCell>
        <mxCell id="vV5gT7rGuwCmQTf4k3ZP-66" value="" style="rounded=0;whiteSpace=wrap;html=1;" vertex="1" parent="1">
          <mxGeometry x="3240" y="280" width="160" height="40" as="geometry" />
        </mxCell>
        <mxCell id="vV5gT7rGuwCmQTf4k3ZP-67" value="&lt;font style=&quot;font-size: 36px&quot;&gt;29&lt;/font&gt;" style="text;html=1;strokeColor=none;fillColor=none;align=center;verticalAlign=middle;whiteSpace=wrap;rounded=0;" vertex="1" parent="1">
          <mxGeometry x="3250" y="290" width="40" height="20" as="geometry" />
        </mxCell>
        <mxCell id="vV5gT7rGuwCmQTf4k3ZP-68" value="" style="rounded=0;whiteSpace=wrap;html=1;" vertex="1" parent="1">
          <mxGeometry x="1480" y="360" width="640" height="40" as="geometry" />
        </mxCell>
        <mxCell id="vV5gT7rGuwCmQTf4k3ZP-69" value="" style="rounded=0;whiteSpace=wrap;html=1;" vertex="1" parent="1">
          <mxGeometry x="2120" y="360" width="640" height="40" as="geometry" />
        </mxCell>
        <mxCell id="vV5gT7rGuwCmQTf4k3ZP-70" value="" style="rounded=0;whiteSpace=wrap;html=1;" vertex="1" parent="1">
          <mxGeometry x="2760" y="360" width="640" height="40" as="geometry" />
        </mxCell>
        <mxCell id="vV5gT7rGuwCmQTf4k3ZP-71" value="&lt;span style=&quot;font-size: 36px&quot;&gt;9&lt;/span&gt;&lt;span style=&quot;color: rgba(0 , 0 , 0 , 0) ; font-family: monospace ; font-size: 0px&quot;&gt;%3CmxGraphModel%3E%3Croot%3E%3CmxCell%20id%3D%220%22%2F%3E%3CmxCell%20id%3D%221%22%20parent%3D%220%22%2F%3E%3CmxCell%20id%3D%222%22%20value%3D%22%26lt%3Bfont%20style%3D%26quot%3Bfont-size%3A%2036px%26quot%3B%26gt%3B6%26lt%3B%2Ffont%26gt%3B%26lt%3Bspan%20style%3D%26quot%3Bcolor%3A%20rgba(0%20%2C%200%20%2C%200%20%2C%200)%20%3B%20font-family%3A%20monospace%20%3B%20font-size%3A%200px%26quot%3B%26gt%3B%253CmxGraphModel%253E%253Croot%253E%253CmxCell%2520id%253D%25220%2522%252F%253E%253CmxCell%2520id%253D%25221%2522%2520parent%253D%25220%2522%252F%253E%253CmxCell%2520id%253D%25222%2522%2520value%253D%2522%2526lt%253Bfont%2520style%253D%2526quot%253Bfont-size%253A%252036px%2526quot%253B%2526gt%253B5%2526lt%253B%252Ffont%2526gt%253B%2522%2520style%253D%2522text%253Bhtml%253D1%253BstrokeColor%253Dnone%253BfillColor%253Dnone%253Balign%253Dcenter%253BverticalAlign%253Dmiddle%253BwhiteSpace%253Dwrap%253Brounded%253D0%253B%2522%2520vertex%253D%25221%2522%2520parent%253D%25221%2522%253E%253CmxGeometry%2520x%253D%2522340%2522%2520y%253D%2522370%2522%2520width%253D%252240%2522%2520height%253D%252220%2522%2520as%253D%2522geometry%2522%252F%253E%253C%252FmxCell%253E%253C%252Froot%253E%253C%252FmxGraphModel%253E%26lt%3B%2Fspan%26gt%3B%22%20style%3D%22text%3Bhtml%3D1%3BstrokeColor%3Dnone%3BfillColor%3Dnone%3Balign%3Dcenter%3BverticalAlign%3Dmiddle%3BwhiteSpace%3Dwrap%3Brounded%3D0%3B%22%20vertex%3D%221%22%20parent%3D%221%22%3E%3CmxGeometry%20x%3D%22980%22%20y%3D%22370%22%20width%3D%2240%22%20height%3D%2220%22%20as%3D%22geometry%22%2F%3E%3C%2FmxCell%3E%3C%2Froot%3E%3C%2FmxGraphModel%3E&lt;/span&gt;" style="text;html=1;strokeColor=none;fillColor=none;align=center;verticalAlign=middle;whiteSpace=wrap;rounded=0;" vertex="1" parent="1">
          <mxGeometry x="1520" y="370" width="40" height="20" as="geometry" />
        </mxCell>
        <mxCell id="vV5gT7rGuwCmQTf4k3ZP-72" value="&lt;span style=&quot;font-size: 36px&quot;&gt;13&lt;/span&gt;" style="text;html=1;strokeColor=none;fillColor=none;align=center;verticalAlign=middle;whiteSpace=wrap;rounded=0;" vertex="1" parent="1">
          <mxGeometry x="2140" y="370" width="40" height="20" as="geometry" />
        </mxCell>
        <mxCell id="vV5gT7rGuwCmQTf4k3ZP-73" value="&lt;span style=&quot;font-size: 36px&quot;&gt;17&lt;/span&gt;" style="text;html=1;strokeColor=none;fillColor=none;align=center;verticalAlign=middle;whiteSpace=wrap;rounded=0;" vertex="1" parent="1">
          <mxGeometry x="2800" y="370" width="40" height="20" as="geometry" />
        </mxCell>
        <mxCell id="vV5gT7rGuwCmQTf4k3ZP-74" value="" style="rounded=0;whiteSpace=wrap;html=1;" vertex="1" parent="1">
          <mxGeometry x="1241" y="440" width="719" height="40" as="geometry" />
        </mxCell>
        <mxCell id="vV5gT7rGuwCmQTf4k3ZP-75" value="" style="rounded=0;whiteSpace=wrap;html=1;" vertex="1" parent="1">
          <mxGeometry x="1960" y="440" width="719" height="40" as="geometry" />
        </mxCell>
        <mxCell id="vV5gT7rGuwCmQTf4k3ZP-76" value="" style="endArrow=none;html=1;entryX=0;entryY=1;entryDx=0;entryDy=0;" edge="1" parent="1" target="vV5gT7rGuwCmQTf4k3ZP-75">
          <mxGeometry width="50" height="50" relative="1" as="geometry">
            <mxPoint x="200.00000000000023" y="480" as="sourcePoint" />
            <mxPoint x="3500" y="480" as="targetPoint" />
          </mxGeometry>
        </mxCell>
        <mxCell id="vV5gT7rGuwCmQTf4k3ZP-77" value="" style="rounded=0;whiteSpace=wrap;html=1;" vertex="1" parent="1">
          <mxGeometry x="2681" y="440" width="719" height="40" as="geometry" />
        </mxCell>
        <mxCell id="vV5gT7rGuwCmQTf4k3ZP-78" value="&lt;font style=&quot;font-size: 36px&quot;&gt;8&lt;/font&gt;" style="text;html=1;strokeColor=none;fillColor=none;align=center;verticalAlign=middle;whiteSpace=wrap;rounded=0;" vertex="1" parent="1">
          <mxGeometry x="1280" y="450" width="40" height="20" as="geometry" />
        </mxCell>
        <mxCell id="vV5gT7rGuwCmQTf4k3ZP-79" value="&lt;font style=&quot;font-size: 36px&quot;&gt;16&lt;/font&gt;" style="text;html=1;strokeColor=none;fillColor=none;align=center;verticalAlign=middle;whiteSpace=wrap;rounded=0;" vertex="1" parent="1">
          <mxGeometry x="2740" y="450" width="40" height="20" as="geometry" />
        </mxCell>
        <mxCell id="vV5gT7rGuwCmQTf4k3ZP-80" value="&lt;font style=&quot;font-size: 36px&quot;&gt;11&lt;/font&gt;" style="text;html=1;strokeColor=none;fillColor=none;align=center;verticalAlign=middle;whiteSpace=wrap;rounded=0;" vertex="1" parent="1">
          <mxGeometry x="1980" y="450" width="40" height="20" as="geometry" />
        </mxCell>
        <mxCell id="vV5gT7rGuwCmQTf4k3ZP-92" value="&lt;font color=&quot;#ba0000&quot; face=&quot;monospace&quot;&gt;&lt;font style=&quot;font-size: 18px&quot;&gt;113&lt;/font&gt;&lt;/font&gt;" style="text;html=1;strokeColor=none;fillColor=none;align=center;verticalAlign=middle;whiteSpace=wrap;rounded=0;" vertex="1" parent="1">
          <mxGeometry x="3180" y="90" width="40" height="20" as="geometry" />
        </mxCell>
        <mxCell id="vV5gT7rGuwCmQTf4k3ZP-95" value="" style="endArrow=none;html=1;" edge="1" parent="1">
          <mxGeometry width="50" height="50" relative="1" as="geometry">
            <mxPoint x="1880" y="160" as="sourcePoint" />
            <mxPoint x="1880" y="120" as="targetPoint" />
          </mxGeometry>
        </mxCell>
        <mxCell id="vV5gT7rGuwCmQTf4k3ZP-96" value="" style="endArrow=none;html=1;" edge="1" parent="1">
          <mxGeometry width="50" height="50" relative="1" as="geometry">
            <mxPoint x="1760" y="160" as="sourcePoint" />
            <mxPoint x="1760" y="120" as="targetPoint" />
            <Array as="points" />
          </mxGeometry>
        </mxCell>
        <mxCell id="vV5gT7rGuwCmQTf4k3ZP-97" value="" style="endArrow=none;html=1;" edge="1" parent="1">
          <mxGeometry width="50" height="50" relative="1" as="geometry">
            <mxPoint x="2000" y="160" as="sourcePoint" />
            <mxPoint x="2000" y="120" as="targetPoint" />
          </mxGeometry>
        </mxCell>
        <mxCell id="vV5gT7rGuwCmQTf4k3ZP-98" value="" style="endArrow=none;html=1;" edge="1" parent="1">
          <mxGeometry width="50" height="50" relative="1" as="geometry">
            <mxPoint x="2120" y="160" as="sourcePoint" />
            <mxPoint x="2120" y="120" as="targetPoint" />
          </mxGeometry>
        </mxCell>
        <mxCell id="vV5gT7rGuwCmQTf4k3ZP-99" value="" style="endArrow=none;html=1;" edge="1" parent="1">
          <mxGeometry width="50" height="50" relative="1" as="geometry">
            <mxPoint x="2240" y="160" as="sourcePoint" />
            <mxPoint x="2240" y="120" as="targetPoint" />
          </mxGeometry>
        </mxCell>
        <mxCell id="vV5gT7rGuwCmQTf4k3ZP-100" value="" style="endArrow=none;html=1;" edge="1" parent="1">
          <mxGeometry width="50" height="50" relative="1" as="geometry">
            <mxPoint x="2360" y="160" as="sourcePoint" />
            <mxPoint x="2360" y="120" as="targetPoint" />
          </mxGeometry>
        </mxCell>
        <mxCell id="vV5gT7rGuwCmQTf4k3ZP-101" value="" style="endArrow=none;html=1;" edge="1" parent="1">
          <mxGeometry width="50" height="50" relative="1" as="geometry">
            <mxPoint x="2480" y="160" as="sourcePoint" />
            <mxPoint x="2480" y="120" as="targetPoint" />
          </mxGeometry>
        </mxCell>
        <mxCell id="vV5gT7rGuwCmQTf4k3ZP-102" value="" style="endArrow=none;html=1;" edge="1" parent="1">
          <mxGeometry width="50" height="50" relative="1" as="geometry">
            <mxPoint x="2600" y="160" as="sourcePoint" />
            <mxPoint x="2600" y="120" as="targetPoint" />
          </mxGeometry>
        </mxCell>
        <mxCell id="vV5gT7rGuwCmQTf4k3ZP-103" value="" style="endArrow=none;html=1;" edge="1" parent="1">
          <mxGeometry width="50" height="50" relative="1" as="geometry">
            <mxPoint x="2720" y="160" as="sourcePoint" />
            <mxPoint x="2720" y="120" as="targetPoint" />
          </mxGeometry>
        </mxCell>
        <mxCell id="vV5gT7rGuwCmQTf4k3ZP-104" value="" style="endArrow=none;html=1;" edge="1" parent="1">
          <mxGeometry width="50" height="50" relative="1" as="geometry">
            <mxPoint x="2840" y="160" as="sourcePoint" />
            <mxPoint x="2840" y="120" as="targetPoint" />
          </mxGeometry>
        </mxCell>
        <mxCell id="vV5gT7rGuwCmQTf4k3ZP-105" value="" style="endArrow=none;html=1;startArrow=none;" edge="1" parent="1">
          <mxGeometry width="50" height="50" relative="1" as="geometry">
            <mxPoint x="3080" y="160" as="sourcePoint" />
            <mxPoint x="3080" y="120" as="targetPoint" />
          </mxGeometry>
        </mxCell>
        <mxCell id="vV5gT7rGuwCmQTf4k3ZP-106" value="" style="endArrow=none;html=1;" edge="1" parent="1">
          <mxGeometry width="50" height="50" relative="1" as="geometry">
            <mxPoint x="2960" y="160" as="sourcePoint" />
            <mxPoint x="2960" y="120" as="targetPoint" />
          </mxGeometry>
        </mxCell>
        <mxCell id="vV5gT7rGuwCmQTf4k3ZP-107" value="&lt;font color=&quot;#ba0000&quot; face=&quot;monospace&quot;&gt;&lt;span style=&quot;font-size: 0px&quot;&gt;81&lt;/span&gt;&lt;font size=&quot;3&quot;&gt;81&lt;/font&gt;&lt;/font&gt;" style="text;html=1;strokeColor=none;fillColor=none;align=center;verticalAlign=middle;whiteSpace=wrap;rounded=0;" vertex="1" parent="1">
          <mxGeometry x="1860" y="90" width="40" height="20" as="geometry" />
        </mxCell>
        <mxCell id="vV5gT7rGuwCmQTf4k3ZP-108" value="&lt;font size=&quot;3&quot;&gt;78&lt;/font&gt;" style="text;html=1;strokeColor=none;fillColor=none;align=center;verticalAlign=middle;whiteSpace=wrap;rounded=0;" vertex="1" parent="1">
          <mxGeometry x="1740" y="90" width="40" height="20" as="geometry" />
        </mxCell>
        <mxCell id="vV5gT7rGuwCmQTf4k3ZP-109" value="&lt;font color=&quot;#ba0000&quot; face=&quot;monospace&quot;&gt;&lt;span style=&quot;font-size: 0px&quot;&gt;84&lt;/span&gt;&lt;font size=&quot;3&quot;&gt;84&lt;/font&gt;&lt;/font&gt;" style="text;html=1;strokeColor=none;fillColor=none;align=center;verticalAlign=middle;whiteSpace=wrap;rounded=0;" vertex="1" parent="1">
          <mxGeometry x="1980" y="90" width="40" height="20" as="geometry" />
        </mxCell>
        <mxCell id="vV5gT7rGuwCmQTf4k3ZP-110" value="&lt;font color=&quot;#ba0000&quot; face=&quot;monospace&quot;&gt;&lt;span style=&quot;font-size: 0px&quot;&gt;9&lt;/span&gt;&lt;font size=&quot;3&quot;&gt;93&lt;/font&gt;&lt;/font&gt;" style="text;html=1;strokeColor=none;fillColor=none;align=center;verticalAlign=middle;whiteSpace=wrap;rounded=0;" vertex="1" parent="1">
          <mxGeometry x="2340" y="90" width="40" height="20" as="geometry" />
        </mxCell>
        <mxCell id="vV5gT7rGuwCmQTf4k3ZP-111" value="&lt;font color=&quot;#ba0000&quot; face=&quot;monospace&quot;&gt;&lt;span style=&quot;font-size: 14px&quot;&gt;90&lt;/span&gt;&lt;/font&gt;" style="text;html=1;strokeColor=none;fillColor=none;align=center;verticalAlign=middle;whiteSpace=wrap;rounded=0;" vertex="1" parent="1">
          <mxGeometry x="2220" y="90" width="40" height="20" as="geometry" />
        </mxCell>
        <mxCell id="vV5gT7rGuwCmQTf4k3ZP-112" value="&lt;font color=&quot;#ba0000&quot; face=&quot;monospace&quot;&gt;&lt;span style=&quot;font-size: 0px&quot;&gt;87&lt;/span&gt;&lt;font size=&quot;3&quot;&gt;87&lt;/font&gt;&lt;/font&gt;" style="text;html=1;strokeColor=none;fillColor=none;align=center;verticalAlign=middle;whiteSpace=wrap;rounded=0;" vertex="1" parent="1">
          <mxGeometry x="2100" y="90" width="40" height="20" as="geometry" />
        </mxCell>
        <mxCell id="vV5gT7rGuwCmQTf4k3ZP-113" value="&lt;font color=&quot;#ba0000&quot; face=&quot;monospace&quot;&gt;&lt;span style=&quot;font-size: 0px&quot;&gt;1&lt;/span&gt;&lt;font size=&quot;3&quot;&gt;102&lt;/font&gt;&lt;/font&gt;" style="text;html=1;strokeColor=none;fillColor=none;align=center;verticalAlign=middle;whiteSpace=wrap;rounded=0;" vertex="1" parent="1">
          <mxGeometry x="2700" y="90" width="40" height="20" as="geometry" />
        </mxCell>
        <mxCell id="vV5gT7rGuwCmQTf4k3ZP-114" value="&lt;font color=&quot;#ba0000&quot; face=&quot;monospace&quot;&gt;&lt;span style=&quot;font-size: 0px&quot;&gt;99&lt;/span&gt;&lt;font size=&quot;3&quot;&gt;99&lt;/font&gt;&lt;/font&gt;" style="text;html=1;strokeColor=none;fillColor=none;align=center;verticalAlign=middle;whiteSpace=wrap;rounded=0;" vertex="1" parent="1">
          <mxGeometry x="2580" y="90" width="40" height="20" as="geometry" />
        </mxCell>
        <mxCell id="vV5gT7rGuwCmQTf4k3ZP-115" value="&lt;font color=&quot;#ba0000&quot; face=&quot;monospace&quot;&gt;&lt;span style=&quot;font-size: 0px&quot;&gt;96&lt;/span&gt;&lt;font size=&quot;3&quot;&gt;96&lt;/font&gt;&lt;/font&gt;" style="text;html=1;strokeColor=none;fillColor=none;align=center;verticalAlign=middle;whiteSpace=wrap;rounded=0;" vertex="1" parent="1">
          <mxGeometry x="2460" y="90" width="40" height="20" as="geometry" />
        </mxCell>
        <mxCell id="vV5gT7rGuwCmQTf4k3ZP-116" value="&lt;font color=&quot;#ba0000&quot; face=&quot;monospace&quot;&gt;&lt;font style=&quot;font-size: 18px&quot;&gt;110&lt;/font&gt;&lt;/font&gt;" style="text;html=1;strokeColor=none;fillColor=none;align=center;verticalAlign=middle;whiteSpace=wrap;rounded=0;" vertex="1" parent="1">
          <mxGeometry x="3060" y="90" width="40" height="20" as="geometry" />
        </mxCell>
        <mxCell id="vV5gT7rGuwCmQTf4k3ZP-117" value="&lt;font color=&quot;#ba0000&quot; face=&quot;monospace&quot;&gt;&lt;span style=&quot;font-size: 0px&quot;&gt;1&lt;/span&gt;&lt;font size=&quot;3&quot;&gt;108&lt;/font&gt;&lt;/font&gt;" style="text;html=1;strokeColor=none;fillColor=none;align=center;verticalAlign=middle;whiteSpace=wrap;rounded=0;" vertex="1" parent="1">
          <mxGeometry x="2940" y="90" width="40" height="20" as="geometry" />
        </mxCell>
        <mxCell id="vV5gT7rGuwCmQTf4k3ZP-118" value="&lt;font size=&quot;3&quot;&gt;105&lt;/font&gt;" style="text;html=1;strokeColor=none;fillColor=none;align=center;verticalAlign=middle;whiteSpace=wrap;rounded=0;" vertex="1" parent="1">
          <mxGeometry x="2820" y="90" width="40" height="20" as="geometry" />
        </mxCell>
        <mxCell id="vV5gT7rGuwCmQTf4k3ZP-120" style="edgeStyle=orthogonalEdgeStyle;rounded=0;orthogonalLoop=1;jettySize=auto;html=1;exitX=1;exitY=0.5;exitDx=0;exitDy=0;entryX=0.75;entryY=1;entryDx=0;entryDy=0;" edge="1" parent="1" source="vV5gT7rGuwCmQTf4k3ZP-110" target="vV5gT7rGuwCmQTf4k3ZP-110">
          <mxGeometry relative="1" as="geometry" />
        </mxCell>
        <mxCell id="vV5gT7rGuwCmQTf4k3ZP-121" value="" style="endArrow=none;html=1;startArrow=none;" edge="1" parent="1">
          <mxGeometry width="50" height="50" relative="1" as="geometry">
            <mxPoint x="3200" y="160" as="sourcePoint" />
            <mxPoint x="3200" y="120" as="targetPoint" />
          </mxGeometry>
        </mxCell>
        <mxCell id="vV5gT7rGuwCmQTf4k3ZP-122" value="" style="endArrow=none;html=1;startArrow=none;" edge="1" parent="1">
          <mxGeometry width="50" height="50" relative="1" as="geometry">
            <mxPoint x="3319.17" y="160" as="sourcePoint" />
            <mxPoint x="3319.17" y="120" as="targetPoint" />
          </mxGeometry>
        </mxCell>
        <mxCell id="vV5gT7rGuwCmQTf4k3ZP-124" value="&lt;font color=&quot;#ba0000&quot; face=&quot;monospace&quot;&gt;&lt;font style=&quot;font-size: 18px&quot;&gt;116&lt;/font&gt;&lt;/font&gt;" style="text;html=1;strokeColor=none;fillColor=none;align=center;verticalAlign=middle;whiteSpace=wrap;rounded=0;" vertex="1" parent="1">
          <mxGeometry x="3300" y="90" width="40" height="20" as="geometry" />
        </mxCell>
        <mxCell id="vV5gT7rGuwCmQTf4k3ZP-125" value="" style="endArrow=none;dashed=1;html=1;dashPattern=1 3;strokeWidth=2;entryX=0;entryY=1;entryDx=0;entryDy=0;" edge="1" parent="1" target="iMXSZHijQQc5wtzr5dYB-53">
          <mxGeometry width="50" height="50" relative="1" as="geometry">
            <mxPoint x="360" y="680" as="sourcePoint" />
            <mxPoint x="990" y="400" as="targetPoint" />
          </mxGeometry>
        </mxCell>
        <mxCell id="vV5gT7rGuwCmQTf4k3ZP-126" value="" style="endArrow=none;dashed=1;html=1;dashPattern=1 3;strokeWidth=2;entryX=0;entryY=1;entryDx=0;entryDy=0;exitX=0;exitY=0.25;exitDx=0;exitDy=0;" edge="1" parent="1" source="vV5gT7rGuwCmQTf4k3ZP-11" target="iMXSZHijQQc5wtzr5dYB-58">
          <mxGeometry width="50" height="50" relative="1" as="geometry">
            <mxPoint x="940" y="450" as="sourcePoint" />
            <mxPoint x="990" y="400" as="targetPoint" />
          </mxGeometry>
        </mxCell>
        <mxCell id="vV5gT7rGuwCmQTf4k3ZP-127" value="" style="endArrow=none;dashed=1;html=1;dashPattern=1 3;strokeWidth=2;entryX=0;entryY=1;entryDx=0;entryDy=0;" edge="1" parent="1">
          <mxGeometry width="50" height="50" relative="1" as="geometry">
            <mxPoint x="1480" y="360" as="sourcePoint" />
            <mxPoint x="1480" y="320" as="targetPoint" />
          </mxGeometry>
        </mxCell>
        <mxCell id="vV5gT7rGuwCmQTf4k3ZP-128" value="" style="endArrow=none;dashed=1;html=1;dashPattern=1 3;strokeWidth=2;entryX=0;entryY=1;entryDx=0;entryDy=0;" edge="1" parent="1">
          <mxGeometry width="50" height="50" relative="1" as="geometry">
            <mxPoint x="1318" y="440" as="sourcePoint" />
            <mxPoint x="1318.33" y="320" as="targetPoint" />
          </mxGeometry>
        </mxCell>
        <mxCell id="vV5gT7rGuwCmQTf4k3ZP-129" value="" style="endArrow=none;dashed=1;html=1;dashPattern=1 3;strokeWidth=2;entryX=0;entryY=1;entryDx=0;entryDy=0;" edge="1" parent="1">
          <mxGeometry width="50" height="50" relative="1" as="geometry">
            <mxPoint x="840" y="360" as="sourcePoint" />
            <mxPoint x="840" y="320" as="targetPoint" />
          </mxGeometry>
        </mxCell>
        <mxCell id="vV5gT7rGuwCmQTf4k3ZP-130" value="" style="endArrow=none;dashed=1;html=1;dashPattern=1 3;strokeWidth=2;entryX=0;entryY=1;entryDx=0;entryDy=0;" edge="1" parent="1">
          <mxGeometry width="50" height="50" relative="1" as="geometry">
            <mxPoint x="680" y="680" as="sourcePoint" />
            <mxPoint x="680" y="320" as="targetPoint" />
          </mxGeometry>
        </mxCell>
        <mxCell id="vV5gT7rGuwCmQTf4k3ZP-131" value="" style="endArrow=none;dashed=1;html=1;dashPattern=1 3;strokeWidth=2;entryX=0;entryY=1;entryDx=0;entryDy=0;" edge="1" parent="1">
          <mxGeometry width="50" height="50" relative="1" as="geometry">
            <mxPoint x="1160" y="680" as="sourcePoint" />
            <mxPoint x="1160" y="320" as="targetPoint" />
          </mxGeometry>
        </mxCell>
        <mxCell id="vV5gT7rGuwCmQTf4k3ZP-132" value="" style="endArrow=none;dashed=1;html=1;dashPattern=1 3;strokeWidth=2;entryX=0;entryY=1;entryDx=0;entryDy=0;" edge="1" parent="1">
          <mxGeometry width="50" height="50" relative="1" as="geometry">
            <mxPoint x="999.17" y="680" as="sourcePoint" />
            <mxPoint x="999.17" y="320" as="targetPoint" />
          </mxGeometry>
        </mxCell>
        <mxCell id="vV5gT7rGuwCmQTf4k3ZP-133" value="" style="endArrow=none;dashed=1;html=1;dashPattern=1 3;strokeWidth=2;entryX=0;entryY=1;entryDx=0;entryDy=0;" edge="1" parent="1">
          <mxGeometry width="50" height="50" relative="1" as="geometry">
            <mxPoint x="1640" y="680" as="sourcePoint" />
            <mxPoint x="1640" y="320" as="targetPoint" />
          </mxGeometry>
        </mxCell>
        <mxCell id="vV5gT7rGuwCmQTf4k3ZP-134" value="" style="endArrow=none;dashed=1;html=1;dashPattern=1 3;strokeWidth=2;entryX=0;entryY=1;entryDx=0;entryDy=0;" edge="1" parent="1">
          <mxGeometry width="50" height="50" relative="1" as="geometry">
            <mxPoint x="1798.33" y="680" as="sourcePoint" />
            <mxPoint x="1798.33" y="320" as="targetPoint" />
          </mxGeometry>
        </mxCell>
        <mxCell id="vV5gT7rGuwCmQTf4k3ZP-135" value="" style="endArrow=none;dashed=1;html=1;dashPattern=1 3;strokeWidth=2;entryX=0;entryY=1;entryDx=0;entryDy=0;" edge="1" parent="1">
          <mxGeometry width="50" height="50" relative="1" as="geometry">
            <mxPoint x="1960" y="440" as="sourcePoint" />
            <mxPoint x="1960.33" y="320" as="targetPoint" />
          </mxGeometry>
        </mxCell>
        <mxCell id="vV5gT7rGuwCmQTf4k3ZP-137" value="" style="endArrow=none;dashed=1;html=1;dashPattern=1 3;strokeWidth=2;entryX=0;entryY=1;entryDx=0;entryDy=0;" edge="1" parent="1">
          <mxGeometry width="50" height="50" relative="1" as="geometry">
            <mxPoint x="2119.17" y="360" as="sourcePoint" />
            <mxPoint x="2119.17" y="320" as="targetPoint" />
          </mxGeometry>
        </mxCell>
        <mxCell id="vV5gT7rGuwCmQTf4k3ZP-138" value="" style="endArrow=none;dashed=1;html=1;dashPattern=1 3;strokeWidth=2;entryX=0;entryY=1;entryDx=0;entryDy=0;" edge="1" parent="1">
          <mxGeometry width="50" height="50" relative="1" as="geometry">
            <mxPoint x="2600" y="680" as="sourcePoint" />
            <mxPoint x="2600" y="320" as="targetPoint" />
          </mxGeometry>
        </mxCell>
        <mxCell id="vV5gT7rGuwCmQTf4k3ZP-139" value="" style="endArrow=none;dashed=1;html=1;dashPattern=1 3;strokeWidth=2;entryX=0;entryY=1;entryDx=0;entryDy=0;" edge="1" parent="1">
          <mxGeometry width="50" height="50" relative="1" as="geometry">
            <mxPoint x="2440" y="680" as="sourcePoint" />
            <mxPoint x="2440" y="320" as="targetPoint" />
          </mxGeometry>
        </mxCell>
        <mxCell id="vV5gT7rGuwCmQTf4k3ZP-140" value="" style="endArrow=none;dashed=1;html=1;dashPattern=1 3;strokeWidth=2;entryX=0;entryY=1;entryDx=0;entryDy=0;" edge="1" parent="1">
          <mxGeometry width="50" height="50" relative="1" as="geometry">
            <mxPoint x="2280" y="680" as="sourcePoint" />
            <mxPoint x="2280" y="320" as="targetPoint" />
          </mxGeometry>
        </mxCell>
        <mxCell id="vV5gT7rGuwCmQTf4k3ZP-141" value="" style="endArrow=none;dashed=1;html=1;dashPattern=1 3;strokeWidth=2;entryX=0;entryY=1;entryDx=0;entryDy=0;" edge="1" parent="1">
          <mxGeometry width="50" height="50" relative="1" as="geometry">
            <mxPoint x="2758.33" y="440" as="sourcePoint" />
            <mxPoint x="2758.6599999999994" y="320" as="targetPoint" />
          </mxGeometry>
        </mxCell>
        <mxCell id="vV5gT7rGuwCmQTf4k3ZP-142" value="" style="endArrow=none;dashed=1;html=1;dashPattern=1 3;strokeWidth=2;entryX=0;entryY=1;entryDx=0;entryDy=0;" edge="1" parent="1">
          <mxGeometry width="50" height="50" relative="1" as="geometry">
            <mxPoint x="2919.9999999999995" y="360" as="sourcePoint" />
            <mxPoint x="2919.9999999999995" y="320" as="targetPoint" />
          </mxGeometry>
        </mxCell>
        <mxCell id="vV5gT7rGuwCmQTf4k3ZP-143" value="" style="endArrow=none;html=1;" edge="1" parent="1">
          <mxGeometry width="50" height="50" relative="1" as="geometry">
            <mxPoint x="2920" y="560" as="sourcePoint" />
            <mxPoint x="2920" y="520" as="targetPoint" />
          </mxGeometry>
        </mxCell>
        <mxCell id="vV5gT7rGuwCmQTf4k3ZP-144" value="" style="endArrow=none;dashed=1;html=1;dashPattern=1 3;strokeWidth=2;entryX=0;entryY=1;entryDx=0;entryDy=0;" edge="1" parent="1">
          <mxGeometry width="50" height="50" relative="1" as="geometry">
            <mxPoint x="3238.33" y="680" as="sourcePoint" />
            <mxPoint x="3238.33" y="320" as="targetPoint" />
          </mxGeometry>
        </mxCell>
        <mxCell id="vV5gT7rGuwCmQTf4k3ZP-145" value="" style="endArrow=none;dashed=1;html=1;dashPattern=1 3;strokeWidth=2;entryX=0;entryY=1;entryDx=0;entryDy=0;" edge="1" parent="1">
          <mxGeometry width="50" height="50" relative="1" as="geometry">
            <mxPoint x="3078.33" y="680" as="sourcePoint" />
            <mxPoint x="3078.33" y="320" as="targetPoint" />
          </mxGeometry>
        </mxCell>
        <mxCell id="vV5gT7rGuwCmQTf4k3ZP-146" value="" style="endArrow=none;dashed=1;html=1;dashPattern=1 3;strokeWidth=2;entryX=0;entryY=1;entryDx=0;entryDy=0;" edge="1" parent="1">
          <mxGeometry width="50" height="50" relative="1" as="geometry">
            <mxPoint x="3400" y="360" as="sourcePoint" />
            <mxPoint x="3400" y="320" as="targetPoint" />
          </mxGeometry>
        </mxCell>
        <mxCell id="vV5gT7rGuwCmQTf4k3ZP-147" value="" style="endArrow=none;html=1;" edge="1" parent="1">
          <mxGeometry width="50" height="50" relative="1" as="geometry">
            <mxPoint x="3398.33" y="560" as="sourcePoint" />
            <mxPoint x="3398.33" y="520" as="targetPoint" />
          </mxGeometry>
        </mxCell>
        <mxCell id="vV5gT7rGuwCmQTf4k3ZP-148" value="" style="endArrow=none;html=1;startArrow=none;exitX=1;exitY=1;exitDx=0;exitDy=0;" edge="1" parent="1">
          <mxGeometry width="50" height="50" relative="1" as="geometry">
            <mxPoint x="2679" y="400" as="sourcePoint" />
            <mxPoint x="3430" y="400" as="targetPoint" />
          </mxGeometry>
        </mxCell>
        <mxCell id="vV5gT7rGuwCmQTf4k3ZP-149" value="" style="endArrow=none;html=1;startArrow=none;exitX=1;exitY=1;exitDx=0;exitDy=0;" edge="1" parent="1">
          <mxGeometry width="50" height="50" relative="1" as="geometry">
            <mxPoint x="2681" y="320" as="sourcePoint" />
            <mxPoint x="3440" y="320" as="targetPoint" />
          </mxGeometry>
        </mxCell>
        <mxCell id="vV5gT7rGuwCmQTf4k3ZP-151" value="" style="endArrow=none;html=1;" edge="1" parent="1">
          <mxGeometry width="50" height="50" relative="1" as="geometry">
            <mxPoint x="160" y="880" as="sourcePoint" />
            <mxPoint x="2760" y="880" as="targetPoint" />
          </mxGeometry>
        </mxCell>
        <mxCell id="vV5gT7rGuwCmQTf4k3ZP-152" value="" style="endArrow=none;html=1;" edge="1" parent="1">
          <mxGeometry width="50" height="50" relative="1" as="geometry">
            <mxPoint x="160" y="960" as="sourcePoint" />
            <mxPoint x="2760" y="960" as="targetPoint" />
          </mxGeometry>
        </mxCell>
        <mxCell id="vV5gT7rGuwCmQTf4k3ZP-153" value="" style="endArrow=none;html=1;" edge="1" parent="1">
          <mxGeometry width="50" height="50" relative="1" as="geometry">
            <mxPoint x="435" y="880" as="sourcePoint" />
            <mxPoint x="435" y="840" as="targetPoint" />
          </mxGeometry>
        </mxCell>
        <mxCell id="vV5gT7rGuwCmQTf4k3ZP-154" value="" style="endArrow=none;html=1;" edge="1" parent="1">
          <mxGeometry width="50" height="50" relative="1" as="geometry">
            <mxPoint x="314.99999999999955" y="880" as="sourcePoint" />
            <mxPoint x="314.99999999999955" y="840" as="targetPoint" />
            <Array as="points" />
          </mxGeometry>
        </mxCell>
        <mxCell id="vV5gT7rGuwCmQTf4k3ZP-155" value="" style="endArrow=none;html=1;" edge="1" parent="1">
          <mxGeometry width="50" height="50" relative="1" as="geometry">
            <mxPoint x="199.99999999999955" y="880" as="sourcePoint" />
            <mxPoint x="199.99999999999955" y="840" as="targetPoint" />
          </mxGeometry>
        </mxCell>
        <mxCell id="vV5gT7rGuwCmQTf4k3ZP-156" value="" style="endArrow=none;html=1;" edge="1" parent="1">
          <mxGeometry width="50" height="50" relative="1" as="geometry">
            <mxPoint x="555" y="880" as="sourcePoint" />
            <mxPoint x="555" y="840" as="targetPoint" />
          </mxGeometry>
        </mxCell>
        <mxCell id="vV5gT7rGuwCmQTf4k3ZP-157" value="" style="endArrow=none;html=1;" edge="1" parent="1">
          <mxGeometry width="50" height="50" relative="1" as="geometry">
            <mxPoint x="675" y="880" as="sourcePoint" />
            <mxPoint x="675" y="840" as="targetPoint" />
          </mxGeometry>
        </mxCell>
        <mxCell id="vV5gT7rGuwCmQTf4k3ZP-158" value="" style="endArrow=none;html=1;" edge="1" parent="1">
          <mxGeometry width="50" height="50" relative="1" as="geometry">
            <mxPoint x="795" y="880" as="sourcePoint" />
            <mxPoint x="795" y="840" as="targetPoint" />
          </mxGeometry>
        </mxCell>
        <mxCell id="vV5gT7rGuwCmQTf4k3ZP-159" value="" style="endArrow=none;html=1;" edge="1" parent="1">
          <mxGeometry width="50" height="50" relative="1" as="geometry">
            <mxPoint x="915" y="880" as="sourcePoint" />
            <mxPoint x="915" y="840" as="targetPoint" />
          </mxGeometry>
        </mxCell>
        <mxCell id="vV5gT7rGuwCmQTf4k3ZP-160" value="" style="endArrow=none;html=1;" edge="1" parent="1">
          <mxGeometry width="50" height="50" relative="1" as="geometry">
            <mxPoint x="1035" y="880" as="sourcePoint" />
            <mxPoint x="1035" y="840" as="targetPoint" />
          </mxGeometry>
        </mxCell>
        <mxCell id="vV5gT7rGuwCmQTf4k3ZP-161" value="" style="endArrow=none;html=1;" edge="1" parent="1">
          <mxGeometry width="50" height="50" relative="1" as="geometry">
            <mxPoint x="1155" y="880" as="sourcePoint" />
            <mxPoint x="1155" y="840" as="targetPoint" />
          </mxGeometry>
        </mxCell>
        <mxCell id="vV5gT7rGuwCmQTf4k3ZP-162" value="" style="endArrow=none;html=1;" edge="1" parent="1">
          <mxGeometry width="50" height="50" relative="1" as="geometry">
            <mxPoint x="1275" y="880" as="sourcePoint" />
            <mxPoint x="1275" y="840" as="targetPoint" />
          </mxGeometry>
        </mxCell>
        <mxCell id="vV5gT7rGuwCmQTf4k3ZP-163" value="" style="endArrow=none;html=1;" edge="1" parent="1">
          <mxGeometry width="50" height="50" relative="1" as="geometry">
            <mxPoint x="1395" y="880" as="sourcePoint" />
            <mxPoint x="1395" y="840" as="targetPoint" />
          </mxGeometry>
        </mxCell>
        <mxCell id="vV5gT7rGuwCmQTf4k3ZP-164" value="" style="endArrow=none;html=1;startArrow=none;" edge="1" parent="1">
          <mxGeometry width="50" height="50" relative="1" as="geometry">
            <mxPoint x="1635" y="880" as="sourcePoint" />
            <mxPoint x="1635" y="840" as="targetPoint" />
          </mxGeometry>
        </mxCell>
        <mxCell id="vV5gT7rGuwCmQTf4k3ZP-165" value="" style="endArrow=none;html=1;" edge="1" parent="1">
          <mxGeometry width="50" height="50" relative="1" as="geometry">
            <mxPoint x="1515" y="880" as="sourcePoint" />
            <mxPoint x="1515" y="840" as="targetPoint" />
          </mxGeometry>
        </mxCell>
        <mxCell id="vV5gT7rGuwCmQTf4k3ZP-166" value="&lt;font color=&quot;#ba0000&quot; face=&quot;monospace&quot;&gt;&lt;span style=&quot;font-size: 0px&quot;&gt;11&lt;/span&gt;&lt;font size=&quot;3&quot;&gt;119&lt;/font&gt;&lt;/font&gt;" style="text;html=1;strokeColor=none;fillColor=none;align=center;verticalAlign=middle;whiteSpace=wrap;rounded=0;" vertex="1" parent="1">
          <mxGeometry x="180" y="810" width="40" height="20" as="geometry" />
        </mxCell>
        <mxCell id="vV5gT7rGuwCmQTf4k3ZP-167" value="&lt;font color=&quot;#ba0000&quot; face=&quot;monospace&quot;&gt;&lt;span style=&quot;font-size: 0px&quot;&gt;1&lt;/span&gt;&lt;font size=&quot;3&quot;&gt;125&lt;/font&gt;&lt;/font&gt;" style="text;html=1;strokeColor=none;fillColor=none;align=center;verticalAlign=middle;whiteSpace=wrap;rounded=0;" vertex="1" parent="1">
          <mxGeometry x="415" y="810" width="40" height="20" as="geometry" />
        </mxCell>
        <mxCell id="vV5gT7rGuwCmQTf4k3ZP-168" value="&lt;font size=&quot;3&quot;&gt;122&lt;/font&gt;" style="text;html=1;strokeColor=none;fillColor=none;align=center;verticalAlign=middle;whiteSpace=wrap;rounded=0;" vertex="1" parent="1">
          <mxGeometry x="295" y="810" width="40" height="20" as="geometry" />
        </mxCell>
        <mxCell id="vV5gT7rGuwCmQTf4k3ZP-169" value="&lt;font color=&quot;#ba0000&quot; face=&quot;monospace&quot;&gt;&lt;span style=&quot;font-size: 0px&quot;&gt;1&lt;/span&gt;&lt;font size=&quot;3&quot;&gt;128&lt;/font&gt;&lt;/font&gt;" style="text;html=1;strokeColor=none;fillColor=none;align=center;verticalAlign=middle;whiteSpace=wrap;rounded=0;" vertex="1" parent="1">
          <mxGeometry x="535" y="810" width="40" height="20" as="geometry" />
        </mxCell>
        <mxCell id="vV5gT7rGuwCmQTf4k3ZP-170" value="&lt;font color=&quot;#ba0000&quot; face=&quot;monospace&quot;&gt;&lt;span style=&quot;font-size: 0px&quot;&gt;1&lt;/span&gt;&lt;font size=&quot;3&quot;&gt;137&lt;/font&gt;&lt;/font&gt;" style="text;html=1;strokeColor=none;fillColor=none;align=center;verticalAlign=middle;whiteSpace=wrap;rounded=0;" vertex="1" parent="1">
          <mxGeometry x="895" y="810" width="40" height="20" as="geometry" />
        </mxCell>
        <mxCell id="vV5gT7rGuwCmQTf4k3ZP-171" value="&lt;font color=&quot;#ba0000&quot; face=&quot;monospace&quot;&gt;&lt;span style=&quot;font-size: 14px&quot;&gt;134&lt;/span&gt;&lt;/font&gt;" style="text;html=1;strokeColor=none;fillColor=none;align=center;verticalAlign=middle;whiteSpace=wrap;rounded=0;" vertex="1" parent="1">
          <mxGeometry x="775" y="810" width="40" height="20" as="geometry" />
        </mxCell>
        <mxCell id="vV5gT7rGuwCmQTf4k3ZP-172" value="&lt;font color=&quot;#ba0000&quot; face=&quot;monospace&quot;&gt;&lt;span style=&quot;font-size: 0px&quot;&gt;1&lt;/span&gt;&lt;font size=&quot;3&quot;&gt;131&lt;/font&gt;&lt;/font&gt;" style="text;html=1;strokeColor=none;fillColor=none;align=center;verticalAlign=middle;whiteSpace=wrap;rounded=0;" vertex="1" parent="1">
          <mxGeometry x="655" y="810" width="40" height="20" as="geometry" />
        </mxCell>
        <mxCell id="vV5gT7rGuwCmQTf4k3ZP-173" value="&lt;font color=&quot;#ba0000&quot; face=&quot;monospace&quot;&gt;&lt;span style=&quot;font-size: 0px&quot;&gt;1&lt;/span&gt;&lt;font size=&quot;3&quot;&gt;146&lt;/font&gt;&lt;/font&gt;" style="text;html=1;strokeColor=none;fillColor=none;align=center;verticalAlign=middle;whiteSpace=wrap;rounded=0;" vertex="1" parent="1">
          <mxGeometry x="1255" y="810" width="40" height="20" as="geometry" />
        </mxCell>
        <mxCell id="vV5gT7rGuwCmQTf4k3ZP-174" value="&lt;font color=&quot;#ba0000&quot; face=&quot;monospace&quot;&gt;&lt;span style=&quot;font-size: 0px&quot;&gt;1&lt;/span&gt;&lt;font size=&quot;3&quot;&gt;143&lt;/font&gt;&lt;/font&gt;" style="text;html=1;strokeColor=none;fillColor=none;align=center;verticalAlign=middle;whiteSpace=wrap;rounded=0;" vertex="1" parent="1">
          <mxGeometry x="1135" y="810" width="40" height="20" as="geometry" />
        </mxCell>
        <mxCell id="vV5gT7rGuwCmQTf4k3ZP-175" value="&lt;font color=&quot;#ba0000&quot; face=&quot;monospace&quot;&gt;&lt;span style=&quot;font-size: 0px&quot;&gt;1&lt;/span&gt;&lt;font size=&quot;3&quot;&gt;140&lt;/font&gt;&lt;/font&gt;" style="text;html=1;strokeColor=none;fillColor=none;align=center;verticalAlign=middle;whiteSpace=wrap;rounded=0;" vertex="1" parent="1">
          <mxGeometry x="1015" y="810" width="40" height="20" as="geometry" />
        </mxCell>
        <mxCell id="vV5gT7rGuwCmQTf4k3ZP-176" value="&lt;font color=&quot;#ba0000&quot; face=&quot;monospace&quot;&gt;&lt;font style=&quot;font-size: 18px&quot;&gt;155&lt;/font&gt;&lt;/font&gt;" style="text;html=1;strokeColor=none;fillColor=none;align=center;verticalAlign=middle;whiteSpace=wrap;rounded=0;" vertex="1" parent="1">
          <mxGeometry x="1615" y="810" width="40" height="20" as="geometry" />
        </mxCell>
        <mxCell id="vV5gT7rGuwCmQTf4k3ZP-177" value="&lt;font color=&quot;#ba0000&quot; face=&quot;monospace&quot;&gt;&lt;span style=&quot;font-size: 0px&quot;&gt;1&lt;/span&gt;&lt;font size=&quot;3&quot;&gt;152&lt;/font&gt;&lt;/font&gt;" style="text;html=1;strokeColor=none;fillColor=none;align=center;verticalAlign=middle;whiteSpace=wrap;rounded=0;" vertex="1" parent="1">
          <mxGeometry x="1495" y="810" width="40" height="20" as="geometry" />
        </mxCell>
        <mxCell id="vV5gT7rGuwCmQTf4k3ZP-178" value="" style="endArrow=none;html=1;" edge="1" parent="1">
          <mxGeometry width="50" height="50" relative="1" as="geometry">
            <mxPoint x="199.99999999999955" y="960" as="sourcePoint" />
            <mxPoint x="199.99999999999955" y="920" as="targetPoint" />
          </mxGeometry>
        </mxCell>
        <mxCell id="vV5gT7rGuwCmQTf4k3ZP-179" value="" style="endArrow=none;html=1;" edge="1" parent="1">
          <mxGeometry width="50" height="50" relative="1" as="geometry">
            <mxPoint x="674.29" y="960" as="sourcePoint" />
            <mxPoint x="674.29" y="920" as="targetPoint" />
          </mxGeometry>
        </mxCell>
        <mxCell id="vV5gT7rGuwCmQTf4k3ZP-180" value="" style="endArrow=none;html=1;" edge="1" parent="1">
          <mxGeometry width="50" height="50" relative="1" as="geometry">
            <mxPoint x="554.1700000000001" y="960" as="sourcePoint" />
            <mxPoint x="554.1700000000001" y="920" as="targetPoint" />
          </mxGeometry>
        </mxCell>
        <mxCell id="vV5gT7rGuwCmQTf4k3ZP-181" value="" style="endArrow=none;html=1;" edge="1" parent="1">
          <mxGeometry width="50" height="50" relative="1" as="geometry">
            <mxPoint x="434.28999999999996" y="960" as="sourcePoint" />
            <mxPoint x="434.28999999999996" y="920" as="targetPoint" />
          </mxGeometry>
        </mxCell>
        <mxCell id="vV5gT7rGuwCmQTf4k3ZP-182" value="" style="endArrow=none;html=1;" edge="1" parent="1">
          <mxGeometry width="50" height="50" relative="1" as="geometry">
            <mxPoint x="319.28999999999996" y="960" as="sourcePoint" />
            <mxPoint x="319.28999999999996" y="920" as="targetPoint" />
          </mxGeometry>
        </mxCell>
        <mxCell id="vV5gT7rGuwCmQTf4k3ZP-183" value="" style="rounded=0;whiteSpace=wrap;html=1;" vertex="1" parent="1">
          <mxGeometry x="160" y="1000" width="160" height="40" as="geometry" />
        </mxCell>
        <mxCell id="vV5gT7rGuwCmQTf4k3ZP-184" value="" style="rounded=0;whiteSpace=wrap;html=1;" vertex="1" parent="1">
          <mxGeometry x="320" y="1000" width="160" height="40" as="geometry" />
        </mxCell>
        <mxCell id="vV5gT7rGuwCmQTf4k3ZP-185" value="&lt;font style=&quot;font-size: 36px&quot;&gt;30&lt;/font&gt;" style="text;html=1;strokeColor=none;fillColor=none;align=center;verticalAlign=middle;whiteSpace=wrap;rounded=0;" vertex="1" parent="1">
          <mxGeometry x="205" y="1010" width="40" height="20" as="geometry" />
        </mxCell>
        <mxCell id="vV5gT7rGuwCmQTf4k3ZP-186" value="" style="rounded=0;whiteSpace=wrap;html=1;" vertex="1" parent="1">
          <mxGeometry x="960" y="1000" width="160" height="40" as="geometry" />
        </mxCell>
        <mxCell id="vV5gT7rGuwCmQTf4k3ZP-187" value="" style="rounded=0;whiteSpace=wrap;html=1;" vertex="1" parent="1">
          <mxGeometry x="800" y="1000" width="160" height="40" as="geometry" />
        </mxCell>
        <mxCell id="vV5gT7rGuwCmQTf4k3ZP-188" value="" style="rounded=0;whiteSpace=wrap;html=1;" vertex="1" parent="1">
          <mxGeometry x="640" y="1000" width="160" height="40" as="geometry" />
        </mxCell>
        <mxCell id="vV5gT7rGuwCmQTf4k3ZP-189" value="" style="rounded=0;whiteSpace=wrap;html=1;" vertex="1" parent="1">
          <mxGeometry x="480" y="1000" width="160" height="40" as="geometry" />
        </mxCell>
        <mxCell id="vV5gT7rGuwCmQTf4k3ZP-190" value="" style="rounded=0;whiteSpace=wrap;html=1;" vertex="1" parent="1">
          <mxGeometry x="1120" y="1000" width="160" height="40" as="geometry" />
        </mxCell>
        <mxCell id="vV5gT7rGuwCmQTf4k3ZP-191" value="" style="rounded=0;whiteSpace=wrap;html=1;" vertex="1" parent="1">
          <mxGeometry x="1280" y="1000" width="160" height="40" as="geometry" />
        </mxCell>
        <mxCell id="vV5gT7rGuwCmQTf4k3ZP-192" value="" style="rounded=0;whiteSpace=wrap;html=1;" vertex="1" parent="1">
          <mxGeometry x="1440" y="1000" width="160" height="40" as="geometry" />
        </mxCell>
        <mxCell id="vV5gT7rGuwCmQTf4k3ZP-193" value="" style="endArrow=none;html=1;" edge="1" parent="1">
          <mxGeometry width="50" height="50" relative="1" as="geometry">
            <mxPoint x="194.99999999999955" y="1120" as="sourcePoint" />
            <mxPoint x="1655" y="1120" as="targetPoint" />
          </mxGeometry>
        </mxCell>
        <mxCell id="vV5gT7rGuwCmQTf4k3ZP-194" value="" style="endArrow=none;html=1;startArrow=none;exitX=1;exitY=1;exitDx=0;exitDy=0;" edge="1" parent="1">
          <mxGeometry width="50" height="50" relative="1" as="geometry">
            <mxPoint x="2319" y="1200" as="sourcePoint" />
            <mxPoint x="2760" y="1200" as="targetPoint" />
          </mxGeometry>
        </mxCell>
        <mxCell id="vV5gT7rGuwCmQTf4k3ZP-195" value="&lt;font style=&quot;font-size: 36px&quot;&gt;31&lt;/font&gt;" style="text;html=1;strokeColor=none;fillColor=none;align=center;verticalAlign=middle;whiteSpace=wrap;rounded=0;" vertex="1" parent="1">
          <mxGeometry x="369" y="1010" width="40" height="20" as="geometry" />
        </mxCell>
        <mxCell id="vV5gT7rGuwCmQTf4k3ZP-196" value="&lt;span style=&quot;font-size: 36px&quot;&gt;32&lt;/span&gt;" style="text;html=1;strokeColor=none;fillColor=none;align=center;verticalAlign=middle;whiteSpace=wrap;rounded=0;" vertex="1" parent="1">
          <mxGeometry x="525" y="1010" width="40" height="20" as="geometry" />
        </mxCell>
        <mxCell id="vV5gT7rGuwCmQTf4k3ZP-197" value="&lt;span style=&quot;font-size: 36px&quot;&gt;33&lt;/span&gt;" style="text;html=1;strokeColor=none;fillColor=none;align=center;verticalAlign=middle;whiteSpace=wrap;rounded=0;" vertex="1" parent="1">
          <mxGeometry x="685" y="1010" width="40" height="20" as="geometry" />
        </mxCell>
        <mxCell id="vV5gT7rGuwCmQTf4k3ZP-198" value="&lt;span style=&quot;font-size: 36px&quot;&gt;34&lt;/span&gt;" style="text;html=1;strokeColor=none;fillColor=none;align=center;verticalAlign=middle;whiteSpace=wrap;rounded=0;" vertex="1" parent="1">
          <mxGeometry x="855" y="1010" width="40" height="20" as="geometry" />
        </mxCell>
        <mxCell id="vV5gT7rGuwCmQTf4k3ZP-199" value="" style="rounded=0;whiteSpace=wrap;html=1;" vertex="1" parent="1">
          <mxGeometry x="160" y="1080" width="640" height="40" as="geometry" />
        </mxCell>
        <mxCell id="vV5gT7rGuwCmQTf4k3ZP-200" value="" style="rounded=0;whiteSpace=wrap;html=1;" vertex="1" parent="1">
          <mxGeometry x="800" y="1080" width="640" height="40" as="geometry" />
        </mxCell>
        <mxCell id="vV5gT7rGuwCmQTf4k3ZP-201" value="" style="endArrow=none;html=1;" edge="1" parent="1">
          <mxGeometry width="50" height="50" relative="1" as="geometry">
            <mxPoint x="1399.29" y="960" as="sourcePoint" />
            <mxPoint x="1399.29" y="920" as="targetPoint" />
          </mxGeometry>
        </mxCell>
        <mxCell id="vV5gT7rGuwCmQTf4k3ZP-202" value="" style="endArrow=none;html=1;" edge="1" parent="1">
          <mxGeometry width="50" height="50" relative="1" as="geometry">
            <mxPoint x="1280" y="960" as="sourcePoint" />
            <mxPoint x="1280" y="920" as="targetPoint" />
          </mxGeometry>
        </mxCell>
        <mxCell id="vV5gT7rGuwCmQTf4k3ZP-203" value="" style="endArrow=none;html=1;" edge="1" parent="1">
          <mxGeometry width="50" height="50" relative="1" as="geometry">
            <mxPoint x="1158.57" y="960" as="sourcePoint" />
            <mxPoint x="1159.57" y="920" as="targetPoint" />
          </mxGeometry>
        </mxCell>
        <mxCell id="vV5gT7rGuwCmQTf4k3ZP-204" value="" style="endArrow=none;html=1;" edge="1" parent="1">
          <mxGeometry width="50" height="50" relative="1" as="geometry">
            <mxPoint x="1034.29" y="960" as="sourcePoint" />
            <mxPoint x="1034.29" y="920" as="targetPoint" />
          </mxGeometry>
        </mxCell>
        <mxCell id="vV5gT7rGuwCmQTf4k3ZP-205" value="" style="endArrow=none;html=1;" edge="1" parent="1">
          <mxGeometry width="50" height="50" relative="1" as="geometry">
            <mxPoint x="914.29" y="960" as="sourcePoint" />
            <mxPoint x="914.29" y="920" as="targetPoint" />
          </mxGeometry>
        </mxCell>
        <mxCell id="vV5gT7rGuwCmQTf4k3ZP-206" value="" style="endArrow=none;html=1;" edge="1" parent="1">
          <mxGeometry width="50" height="50" relative="1" as="geometry">
            <mxPoint x="794" y="960" as="sourcePoint" />
            <mxPoint x="794" y="920" as="targetPoint" />
          </mxGeometry>
        </mxCell>
        <mxCell id="vV5gT7rGuwCmQTf4k3ZP-207" value="" style="endArrow=none;html=1;" edge="1" parent="1">
          <mxGeometry width="50" height="50" relative="1" as="geometry">
            <mxPoint x="1639.9999999999998" y="960" as="sourcePoint" />
            <mxPoint x="1639.9999999999998" y="920" as="targetPoint" />
          </mxGeometry>
        </mxCell>
        <mxCell id="vV5gT7rGuwCmQTf4k3ZP-208" value="" style="endArrow=none;html=1;" edge="1" parent="1">
          <mxGeometry width="50" height="50" relative="1" as="geometry">
            <mxPoint x="1520" y="960" as="sourcePoint" />
            <mxPoint x="1520" y="920" as="targetPoint" />
          </mxGeometry>
        </mxCell>
        <mxCell id="vV5gT7rGuwCmQTf4k3ZP-209" value="" style="endArrow=none;html=1;" edge="1" parent="1">
          <mxGeometry width="50" height="50" relative="1" as="geometry">
            <mxPoint x="160" y="1320" as="sourcePoint" />
            <mxPoint x="2760" y="1320" as="targetPoint" />
          </mxGeometry>
        </mxCell>
        <mxCell id="vV5gT7rGuwCmQTf4k3ZP-210" value="" style="endArrow=none;html=1;" edge="1" parent="1">
          <mxGeometry width="50" height="50" relative="1" as="geometry">
            <mxPoint x="800" y="1280" as="sourcePoint" />
            <mxPoint x="800" y="1240" as="targetPoint" />
            <Array as="points">
              <mxPoint x="800" y="1270" />
            </Array>
          </mxGeometry>
        </mxCell>
        <mxCell id="vV5gT7rGuwCmQTf4k3ZP-211" value="" style="endArrow=none;html=1;" edge="1" parent="1">
          <mxGeometry width="50" height="50" relative="1" as="geometry">
            <mxPoint x="318" y="1320" as="sourcePoint" />
            <mxPoint x="318.3299999999999" y="1275" as="targetPoint" />
          </mxGeometry>
        </mxCell>
        <mxCell id="vV5gT7rGuwCmQTf4k3ZP-212" value="" style="endArrow=none;html=1;" edge="1" parent="1">
          <mxGeometry width="50" height="50" relative="1" as="geometry">
            <mxPoint x="1440" y="1280" as="sourcePoint" />
            <mxPoint x="1440" y="1240" as="targetPoint" />
          </mxGeometry>
        </mxCell>
        <mxCell id="vV5gT7rGuwCmQTf4k3ZP-213" value="" style="endArrow=none;html=1;" edge="1" parent="1">
          <mxGeometry width="50" height="50" relative="1" as="geometry">
            <mxPoint x="2080" y="1280" as="sourcePoint" />
            <mxPoint x="2080" y="1240" as="targetPoint" />
          </mxGeometry>
        </mxCell>
        <mxCell id="vV5gT7rGuwCmQTf4k3ZP-214" value="" style="endArrow=none;html=1;" edge="1" parent="1">
          <mxGeometry width="50" height="50" relative="1" as="geometry">
            <mxPoint x="960" y="1320" as="sourcePoint" />
            <mxPoint x="960" y="1280" as="targetPoint" />
          </mxGeometry>
        </mxCell>
        <mxCell id="vV5gT7rGuwCmQTf4k3ZP-216" value="" style="endArrow=none;html=1;" edge="1" parent="1">
          <mxGeometry width="50" height="50" relative="1" as="geometry">
            <mxPoint x="1598.7600000000002" y="1323" as="sourcePoint" />
            <mxPoint x="1598.33" y="1283" as="targetPoint" />
          </mxGeometry>
        </mxCell>
        <mxCell id="vV5gT7rGuwCmQTf4k3ZP-217" value="&lt;font size=&quot;3&quot;&gt;149&lt;/font&gt;" style="text;html=1;strokeColor=none;fillColor=none;align=center;verticalAlign=middle;whiteSpace=wrap;rounded=0;" vertex="1" parent="1">
          <mxGeometry x="1375" y="810" width="40" height="20" as="geometry" />
        </mxCell>
        <mxCell id="vV5gT7rGuwCmQTf4k3ZP-218" value="" style="endArrow=none;html=1;" edge="1" parent="1">
          <mxGeometry width="50" height="50" relative="1" as="geometry">
            <mxPoint x="160" y="1400" as="sourcePoint" />
            <mxPoint x="2760" y="1400" as="targetPoint" />
          </mxGeometry>
        </mxCell>
        <mxCell id="vV5gT7rGuwCmQTf4k3ZP-222" value="" style="rounded=0;whiteSpace=wrap;html=1;" vertex="1" parent="1">
          <mxGeometry x="1600" y="1000" width="160" height="40" as="geometry" />
        </mxCell>
        <mxCell id="vV5gT7rGuwCmQTf4k3ZP-223" value="" style="rounded=0;whiteSpace=wrap;html=1;" vertex="1" parent="1">
          <mxGeometry x="1760" y="1000" width="160" height="40" as="geometry" />
        </mxCell>
        <mxCell id="vV5gT7rGuwCmQTf4k3ZP-224" value="" style="rounded=0;whiteSpace=wrap;html=1;" vertex="1" parent="1">
          <mxGeometry x="1920" y="1000" width="160" height="40" as="geometry" />
        </mxCell>
        <mxCell id="vV5gT7rGuwCmQTf4k3ZP-225" value="" style="rounded=0;whiteSpace=wrap;html=1;" vertex="1" parent="1">
          <mxGeometry x="2080" y="1000" width="160" height="40" as="geometry" />
        </mxCell>
        <mxCell id="vV5gT7rGuwCmQTf4k3ZP-226" value="" style="rounded=0;whiteSpace=wrap;html=1;" vertex="1" parent="1">
          <mxGeometry x="2240" y="1000" width="160" height="40" as="geometry" />
        </mxCell>
        <mxCell id="vV5gT7rGuwCmQTf4k3ZP-227" value="" style="rounded=0;whiteSpace=wrap;html=1;" vertex="1" parent="1">
          <mxGeometry x="2400" y="1000" width="160" height="40" as="geometry" />
        </mxCell>
        <mxCell id="vV5gT7rGuwCmQTf4k3ZP-228" value="" style="rounded=0;whiteSpace=wrap;html=1;" vertex="1" parent="1">
          <mxGeometry x="2560" y="1000" width="160" height="40" as="geometry" />
        </mxCell>
        <mxCell id="vV5gT7rGuwCmQTf4k3ZP-232" value="&lt;font style=&quot;font-size: 36px&quot;&gt;35&lt;/font&gt;" style="text;html=1;strokeColor=none;fillColor=none;align=center;verticalAlign=middle;whiteSpace=wrap;rounded=0;" vertex="1" parent="1">
          <mxGeometry x="1015" y="1010" width="40" height="20" as="geometry" />
        </mxCell>
        <mxCell id="vV5gT7rGuwCmQTf4k3ZP-233" value="&lt;font style=&quot;font-size: 36px&quot;&gt;38&lt;/font&gt;" style="text;html=1;strokeColor=none;fillColor=none;align=center;verticalAlign=middle;whiteSpace=wrap;rounded=0;" vertex="1" parent="1">
          <mxGeometry x="1495" y="1010" width="40" height="20" as="geometry" />
        </mxCell>
        <mxCell id="vV5gT7rGuwCmQTf4k3ZP-234" value="&lt;font style=&quot;font-size: 36px&quot;&gt;37&lt;/font&gt;" style="text;html=1;strokeColor=none;fillColor=none;align=center;verticalAlign=middle;whiteSpace=wrap;rounded=0;" vertex="1" parent="1">
          <mxGeometry x="1335" y="1010" width="40" height="20" as="geometry" />
        </mxCell>
        <mxCell id="vV5gT7rGuwCmQTf4k3ZP-235" value="&lt;font style=&quot;font-size: 36px&quot;&gt;36&lt;/font&gt;" style="text;html=1;strokeColor=none;fillColor=none;align=center;verticalAlign=middle;whiteSpace=wrap;rounded=0;" vertex="1" parent="1">
          <mxGeometry x="1175" y="1010" width="40" height="20" as="geometry" />
        </mxCell>
        <mxCell id="vV5gT7rGuwCmQTf4k3ZP-236" value="&lt;font style=&quot;font-size: 36px&quot;&gt;42&lt;/font&gt;" style="text;html=1;strokeColor=none;fillColor=none;align=center;verticalAlign=middle;whiteSpace=wrap;rounded=0;" vertex="1" parent="1">
          <mxGeometry x="2125" y="1010" width="40" height="20" as="geometry" />
        </mxCell>
        <mxCell id="vV5gT7rGuwCmQTf4k3ZP-237" value="&lt;font style=&quot;font-size: 36px&quot;&gt;41&lt;/font&gt;" style="text;html=1;strokeColor=none;fillColor=none;align=center;verticalAlign=middle;whiteSpace=wrap;rounded=0;" vertex="1" parent="1">
          <mxGeometry x="1965" y="1010" width="40" height="20" as="geometry" />
        </mxCell>
        <mxCell id="vV5gT7rGuwCmQTf4k3ZP-238" value="&lt;font style=&quot;font-size: 36px&quot;&gt;40&lt;/font&gt;" style="text;html=1;strokeColor=none;fillColor=none;align=center;verticalAlign=middle;whiteSpace=wrap;rounded=0;" vertex="1" parent="1">
          <mxGeometry x="1815" y="1010" width="40" height="20" as="geometry" />
        </mxCell>
        <mxCell id="vV5gT7rGuwCmQTf4k3ZP-239" value="&lt;font style=&quot;font-size: 36px&quot;&gt;39&lt;/font&gt;" style="text;html=1;strokeColor=none;fillColor=none;align=center;verticalAlign=middle;whiteSpace=wrap;rounded=0;" vertex="1" parent="1">
          <mxGeometry x="1649" y="1010" width="40" height="20" as="geometry" />
        </mxCell>
        <mxCell id="vV5gT7rGuwCmQTf4k3ZP-241" value="&lt;font style=&quot;font-size: 36px&quot;&gt;45&lt;/font&gt;" style="text;html=1;strokeColor=none;fillColor=none;align=center;verticalAlign=middle;whiteSpace=wrap;rounded=0;" vertex="1" parent="1">
          <mxGeometry x="2615" y="1010" width="40" height="20" as="geometry" />
        </mxCell>
        <mxCell id="vV5gT7rGuwCmQTf4k3ZP-242" value="&lt;font style=&quot;font-size: 36px&quot;&gt;44&lt;/font&gt;" style="text;html=1;strokeColor=none;fillColor=none;align=center;verticalAlign=middle;whiteSpace=wrap;rounded=0;" vertex="1" parent="1">
          <mxGeometry x="2455" y="1010" width="40" height="20" as="geometry" />
        </mxCell>
        <mxCell id="vV5gT7rGuwCmQTf4k3ZP-243" value="&lt;font style=&quot;font-size: 36px&quot;&gt;43&lt;/font&gt;" style="text;html=1;strokeColor=none;fillColor=none;align=center;verticalAlign=middle;whiteSpace=wrap;rounded=0;" vertex="1" parent="1">
          <mxGeometry x="2295" y="1010" width="40" height="20" as="geometry" />
        </mxCell>
        <mxCell id="vV5gT7rGuwCmQTf4k3ZP-246" value="&lt;font style=&quot;font-size: 36px&quot;&gt;21&lt;/font&gt;" style="text;html=1;strokeColor=none;fillColor=none;align=center;verticalAlign=middle;whiteSpace=wrap;rounded=0;" vertex="1" parent="1">
          <mxGeometry x="190" y="1090" width="40" height="20" as="geometry" />
        </mxCell>
        <mxCell id="vV5gT7rGuwCmQTf4k3ZP-247" value="&lt;span style=&quot;font-size: 36px&quot;&gt;26&lt;/span&gt;" style="text;html=1;strokeColor=none;fillColor=none;align=center;verticalAlign=middle;whiteSpace=wrap;rounded=0;" vertex="1" parent="1">
          <mxGeometry x="820" y="1090" width="40" height="20" as="geometry" />
        </mxCell>
        <mxCell id="vV5gT7rGuwCmQTf4k3ZP-250" value="&lt;font style=&quot;font-size: 36px&quot;&gt;П1&lt;/font&gt;" style="text;html=1;strokeColor=none;fillColor=none;align=center;verticalAlign=middle;whiteSpace=wrap;rounded=0;" vertex="1" parent="1">
          <mxGeometry x="85" y="1090" width="40" height="20" as="geometry" />
        </mxCell>
        <mxCell id="vV5gT7rGuwCmQTf4k3ZP-251" value="&lt;font style=&quot;font-size: 36px&quot;&gt;К&lt;/font&gt;" style="text;html=1;strokeColor=none;fillColor=none;align=center;verticalAlign=middle;whiteSpace=wrap;rounded=0;" vertex="1" parent="1">
          <mxGeometry x="75" y="1020" width="40" height="20" as="geometry" />
        </mxCell>
        <mxCell id="vV5gT7rGuwCmQTf4k3ZP-252" value="&lt;font style=&quot;font-size: 36px&quot;&gt;И&lt;/font&gt;" style="text;html=1;strokeColor=none;fillColor=none;align=center;verticalAlign=middle;whiteSpace=wrap;rounded=0;" vertex="1" parent="1">
          <mxGeometry x="75" y="940" width="40" height="20" as="geometry" />
        </mxCell>
        <mxCell id="vV5gT7rGuwCmQTf4k3ZP-253" value="&lt;font style=&quot;font-size: 36px&quot;&gt;О&lt;/font&gt;" style="text;html=1;strokeColor=none;fillColor=none;align=center;verticalAlign=middle;whiteSpace=wrap;rounded=0;" vertex="1" parent="1">
          <mxGeometry x="95" y="1295" width="40" height="20" as="geometry" />
        </mxCell>
        <mxCell id="vV5gT7rGuwCmQTf4k3ZP-254" value="&lt;font style=&quot;font-size: 36px&quot;&gt;ОТК&lt;/font&gt;" style="text;html=1;strokeColor=none;fillColor=none;align=center;verticalAlign=middle;whiteSpace=wrap;rounded=0;" vertex="1" parent="1">
          <mxGeometry x="85" y="1380" width="40" height="20" as="geometry" />
        </mxCell>
        <mxCell id="vV5gT7rGuwCmQTf4k3ZP-255" value="&lt;font style=&quot;font-size: 36px&quot;&gt;П2&lt;/font&gt;" style="text;html=1;strokeColor=none;fillColor=none;align=center;verticalAlign=middle;whiteSpace=wrap;rounded=0;" vertex="1" parent="1">
          <mxGeometry x="85" y="1170" width="40" height="20" as="geometry" />
        </mxCell>
        <mxCell id="vV5gT7rGuwCmQTf4k3ZP-258" value="" style="rounded=0;whiteSpace=wrap;html=1;" vertex="1" parent="1">
          <mxGeometry x="1440" y="1080" width="640" height="40" as="geometry" />
        </mxCell>
        <mxCell id="vV5gT7rGuwCmQTf4k3ZP-259" value="" style="rounded=0;whiteSpace=wrap;html=1;" vertex="1" parent="1">
          <mxGeometry x="2080" y="1080" width="640" height="40" as="geometry" />
        </mxCell>
        <mxCell id="vV5gT7rGuwCmQTf4k3ZP-261" value="&lt;span style=&quot;font-size: 36px&quot;&gt;29&lt;/span&gt;" style="text;html=1;strokeColor=none;fillColor=none;align=center;verticalAlign=middle;whiteSpace=wrap;rounded=0;" vertex="1" parent="1">
          <mxGeometry x="1515" y="1090" width="40" height="20" as="geometry" />
        </mxCell>
        <mxCell id="vV5gT7rGuwCmQTf4k3ZP-262" value="&lt;span style=&quot;font-size: 36px&quot;&gt;33&lt;/span&gt;" style="text;html=1;strokeColor=none;fillColor=none;align=center;verticalAlign=middle;whiteSpace=wrap;rounded=0;" vertex="1" parent="1">
          <mxGeometry x="2135" y="1090" width="40" height="20" as="geometry" />
        </mxCell>
        <mxCell id="vV5gT7rGuwCmQTf4k3ZP-266" value="" style="endArrow=none;html=1;entryX=0;entryY=1;entryDx=0;entryDy=0;" edge="1" parent="1">
          <mxGeometry width="50" height="50" relative="1" as="geometry">
            <mxPoint x="194.99999999999955" y="1200" as="sourcePoint" />
            <mxPoint x="1955.0000000000005" y="1200" as="targetPoint" />
          </mxGeometry>
        </mxCell>
        <mxCell id="vV5gT7rGuwCmQTf4k3ZP-272" value="" style="endArrow=none;html=1;" edge="1" parent="1">
          <mxGeometry width="50" height="50" relative="1" as="geometry">
            <mxPoint x="1875" y="880" as="sourcePoint" />
            <mxPoint x="1875" y="840" as="targetPoint" />
          </mxGeometry>
        </mxCell>
        <mxCell id="vV5gT7rGuwCmQTf4k3ZP-273" value="" style="endArrow=none;html=1;" edge="1" parent="1">
          <mxGeometry width="50" height="50" relative="1" as="geometry">
            <mxPoint x="1755" y="880" as="sourcePoint" />
            <mxPoint x="1755" y="840" as="targetPoint" />
            <Array as="points" />
          </mxGeometry>
        </mxCell>
        <mxCell id="vV5gT7rGuwCmQTf4k3ZP-274" value="" style="endArrow=none;html=1;" edge="1" parent="1">
          <mxGeometry width="50" height="50" relative="1" as="geometry">
            <mxPoint x="1995" y="880" as="sourcePoint" />
            <mxPoint x="1995" y="840" as="targetPoint" />
          </mxGeometry>
        </mxCell>
        <mxCell id="vV5gT7rGuwCmQTf4k3ZP-275" value="" style="endArrow=none;html=1;" edge="1" parent="1">
          <mxGeometry width="50" height="50" relative="1" as="geometry">
            <mxPoint x="2115" y="880" as="sourcePoint" />
            <mxPoint x="2115" y="840" as="targetPoint" />
          </mxGeometry>
        </mxCell>
        <mxCell id="vV5gT7rGuwCmQTf4k3ZP-276" value="" style="endArrow=none;html=1;" edge="1" parent="1">
          <mxGeometry width="50" height="50" relative="1" as="geometry">
            <mxPoint x="2235" y="880" as="sourcePoint" />
            <mxPoint x="2235" y="840" as="targetPoint" />
          </mxGeometry>
        </mxCell>
        <mxCell id="vV5gT7rGuwCmQTf4k3ZP-277" value="" style="endArrow=none;html=1;" edge="1" parent="1">
          <mxGeometry width="50" height="50" relative="1" as="geometry">
            <mxPoint x="2355" y="880" as="sourcePoint" />
            <mxPoint x="2355" y="840" as="targetPoint" />
          </mxGeometry>
        </mxCell>
        <mxCell id="vV5gT7rGuwCmQTf4k3ZP-278" value="" style="endArrow=none;html=1;" edge="1" parent="1">
          <mxGeometry width="50" height="50" relative="1" as="geometry">
            <mxPoint x="2481" y="880" as="sourcePoint" />
            <mxPoint x="2481" y="840" as="targetPoint" />
          </mxGeometry>
        </mxCell>
        <mxCell id="vV5gT7rGuwCmQTf4k3ZP-279" value="" style="endArrow=none;html=1;" edge="1" parent="1">
          <mxGeometry width="50" height="50" relative="1" as="geometry">
            <mxPoint x="2598.33" y="880" as="sourcePoint" />
            <mxPoint x="2598.33" y="840" as="targetPoint" />
          </mxGeometry>
        </mxCell>
        <mxCell id="vV5gT7rGuwCmQTf4k3ZP-280" value="" style="endArrow=none;html=1;" edge="1" parent="1">
          <mxGeometry width="50" height="50" relative="1" as="geometry">
            <mxPoint x="2720" y="880" as="sourcePoint" />
            <mxPoint x="2720" y="840" as="targetPoint" />
          </mxGeometry>
        </mxCell>
        <mxCell id="vV5gT7rGuwCmQTf4k3ZP-284" value="&lt;font color=&quot;#ba0000&quot; face=&quot;monospace&quot;&gt;&lt;span style=&quot;font-size: 0px&quot;&gt;1&lt;/span&gt;&lt;font size=&quot;3&quot;&gt;161&lt;/font&gt;&lt;/font&gt;" style="text;html=1;strokeColor=none;fillColor=none;align=center;verticalAlign=middle;whiteSpace=wrap;rounded=0;" vertex="1" parent="1">
          <mxGeometry x="1855" y="810" width="40" height="20" as="geometry" />
        </mxCell>
        <mxCell id="vV5gT7rGuwCmQTf4k3ZP-285" value="&lt;font size=&quot;3&quot;&gt;158&lt;/font&gt;" style="text;html=1;strokeColor=none;fillColor=none;align=center;verticalAlign=middle;whiteSpace=wrap;rounded=0;" vertex="1" parent="1">
          <mxGeometry x="1735" y="810" width="40" height="20" as="geometry" />
        </mxCell>
        <mxCell id="vV5gT7rGuwCmQTf4k3ZP-286" value="&lt;font color=&quot;#ba0000&quot; face=&quot;monospace&quot;&gt;&lt;span style=&quot;font-size: 0px&quot;&gt;1&lt;/span&gt;&lt;font size=&quot;3&quot;&gt;164&lt;/font&gt;&lt;/font&gt;" style="text;html=1;strokeColor=none;fillColor=none;align=center;verticalAlign=middle;whiteSpace=wrap;rounded=0;" vertex="1" parent="1">
          <mxGeometry x="1975" y="810" width="40" height="20" as="geometry" />
        </mxCell>
        <mxCell id="vV5gT7rGuwCmQTf4k3ZP-287" value="&lt;font color=&quot;#ba0000&quot; face=&quot;monospace&quot;&gt;&lt;span style=&quot;font-size: 0px&quot;&gt;1&lt;/span&gt;&lt;font size=&quot;3&quot;&gt;173&lt;/font&gt;&lt;/font&gt;" style="text;html=1;strokeColor=none;fillColor=none;align=center;verticalAlign=middle;whiteSpace=wrap;rounded=0;" vertex="1" parent="1">
          <mxGeometry x="2335" y="810" width="40" height="20" as="geometry" />
        </mxCell>
        <mxCell id="vV5gT7rGuwCmQTf4k3ZP-288" value="&lt;font color=&quot;#ba0000&quot; face=&quot;monospace&quot;&gt;&lt;span style=&quot;font-size: 14px&quot;&gt;170&lt;/span&gt;&lt;/font&gt;" style="text;html=1;strokeColor=none;fillColor=none;align=center;verticalAlign=middle;whiteSpace=wrap;rounded=0;" vertex="1" parent="1">
          <mxGeometry x="2215" y="810" width="40" height="20" as="geometry" />
        </mxCell>
        <mxCell id="vV5gT7rGuwCmQTf4k3ZP-289" value="&lt;font color=&quot;#ba0000&quot; face=&quot;monospace&quot;&gt;&lt;span style=&quot;font-size: 0px&quot;&gt;1&lt;/span&gt;&lt;font size=&quot;3&quot;&gt;167&lt;/font&gt;&lt;/font&gt;" style="text;html=1;strokeColor=none;fillColor=none;align=center;verticalAlign=middle;whiteSpace=wrap;rounded=0;" vertex="1" parent="1">
          <mxGeometry x="2095" y="810" width="40" height="20" as="geometry" />
        </mxCell>
        <mxCell id="vV5gT7rGuwCmQTf4k3ZP-290" value="&lt;font color=&quot;#ba0000&quot; face=&quot;monospace&quot;&gt;&lt;span style=&quot;font-size: 0px&quot;&gt;1&lt;/span&gt;&lt;font size=&quot;3&quot;&gt;182&lt;/font&gt;&lt;/font&gt;" style="text;html=1;strokeColor=none;fillColor=none;align=center;verticalAlign=middle;whiteSpace=wrap;rounded=0;" vertex="1" parent="1">
          <mxGeometry x="2695" y="810" width="40" height="20" as="geometry" />
        </mxCell>
        <mxCell id="vV5gT7rGuwCmQTf4k3ZP-291" value="&lt;font color=&quot;#ba0000&quot; face=&quot;monospace&quot;&gt;&lt;span style=&quot;font-size: 0px&quot;&gt;1&lt;/span&gt;&lt;font size=&quot;3&quot;&gt;179&lt;/font&gt;&lt;/font&gt;" style="text;html=1;strokeColor=none;fillColor=none;align=center;verticalAlign=middle;whiteSpace=wrap;rounded=0;" vertex="1" parent="1">
          <mxGeometry x="2575" y="810" width="40" height="20" as="geometry" />
        </mxCell>
        <mxCell id="vV5gT7rGuwCmQTf4k3ZP-292" value="&lt;font color=&quot;#ba0000&quot; face=&quot;monospace&quot;&gt;&lt;span style=&quot;font-size: 0px&quot;&gt;1&lt;/span&gt;&lt;font size=&quot;3&quot;&gt;176&lt;/font&gt;&lt;/font&gt;" style="text;html=1;strokeColor=none;fillColor=none;align=center;verticalAlign=middle;whiteSpace=wrap;rounded=0;" vertex="1" parent="1">
          <mxGeometry x="2455" y="810" width="40" height="20" as="geometry" />
        </mxCell>
        <mxCell id="vV5gT7rGuwCmQTf4k3ZP-302" value="" style="endArrow=none;dashed=1;html=1;dashPattern=1 3;strokeWidth=2;entryX=0;entryY=1;entryDx=0;entryDy=0;" edge="1" parent="1">
          <mxGeometry width="50" height="50" relative="1" as="geometry">
            <mxPoint x="799.17" y="1080" as="sourcePoint" />
            <mxPoint x="799.17" y="1040" as="targetPoint" />
          </mxGeometry>
        </mxCell>
        <mxCell id="vV5gT7rGuwCmQTf4k3ZP-304" value="" style="endArrow=none;dashed=1;html=1;dashPattern=1 3;strokeWidth=2;entryX=0;entryY=1;entryDx=0;entryDy=0;exitX=0.22;exitY=0;exitDx=0;exitDy=0;exitPerimeter=0;" edge="1" parent="1" source="vV5gT7rGuwCmQTf4k3ZP-332">
          <mxGeometry width="50" height="50" relative="1" as="geometry">
            <mxPoint x="318.33000000000004" y="1080" as="sourcePoint" />
            <mxPoint x="318.33000000000004" y="1040" as="targetPoint" />
          </mxGeometry>
        </mxCell>
        <mxCell id="vV5gT7rGuwCmQTf4k3ZP-308" value="" style="endArrow=none;dashed=1;html=1;dashPattern=1 3;strokeWidth=2;entryX=0;entryY=1;entryDx=0;entryDy=0;" edge="1" parent="1">
          <mxGeometry width="50" height="50" relative="1" as="geometry">
            <mxPoint x="1440" y="1080" as="sourcePoint" />
            <mxPoint x="1440" y="1030" as="targetPoint" />
          </mxGeometry>
        </mxCell>
        <mxCell id="vV5gT7rGuwCmQTf4k3ZP-309" value="" style="endArrow=none;dashed=1;html=1;dashPattern=1 3;strokeWidth=2;entryX=0;entryY=1;entryDx=0;entryDy=0;exitX=0;exitY=0;exitDx=0;exitDy=0;" edge="1" parent="1" source="vV5gT7rGuwCmQTf4k3ZP-335" target="vV5gT7rGuwCmQTf4k3ZP-222">
          <mxGeometry width="50" height="50" relative="1" as="geometry">
            <mxPoint x="1600" y="1410" as="sourcePoint" />
            <mxPoint x="1600" y="1050" as="targetPoint" />
          </mxGeometry>
        </mxCell>
        <mxCell id="vV5gT7rGuwCmQTf4k3ZP-310" value="" style="endArrow=none;dashed=1;html=1;dashPattern=1 3;strokeWidth=2;entryX=0;entryY=1;entryDx=0;entryDy=0;" edge="1" parent="1">
          <mxGeometry width="50" height="50" relative="1" as="geometry">
            <mxPoint x="960" y="1160" as="sourcePoint" />
            <mxPoint x="960.3299999999999" y="1040" as="targetPoint" />
          </mxGeometry>
        </mxCell>
        <mxCell id="vV5gT7rGuwCmQTf4k3ZP-313" value="" style="endArrow=none;dashed=1;html=1;dashPattern=1 3;strokeWidth=2;entryX=0;entryY=1;entryDx=0;entryDy=0;" edge="1" parent="1">
          <mxGeometry width="50" height="50" relative="1" as="geometry">
            <mxPoint x="2560" y="1400" as="sourcePoint" />
            <mxPoint x="2560" y="1040" as="targetPoint" />
          </mxGeometry>
        </mxCell>
        <mxCell id="vV5gT7rGuwCmQTf4k3ZP-322" value="" style="endArrow=none;html=1;startArrow=none;exitX=1;exitY=1;exitDx=0;exitDy=0;" edge="1" parent="1">
          <mxGeometry width="50" height="50" relative="1" as="geometry">
            <mxPoint x="2674" y="1120" as="sourcePoint" />
            <mxPoint x="2760" y="1120" as="targetPoint" />
          </mxGeometry>
        </mxCell>
        <mxCell id="vV5gT7rGuwCmQTf4k3ZP-323" value="" style="endArrow=none;html=1;startArrow=none;exitX=1;exitY=1;exitDx=0;exitDy=0;" edge="1" parent="1">
          <mxGeometry width="50" height="50" relative="1" as="geometry">
            <mxPoint x="2676" y="1040" as="sourcePoint" />
            <mxPoint x="2760" y="1040" as="targetPoint" />
          </mxGeometry>
        </mxCell>
        <mxCell id="vV5gT7rGuwCmQTf4k3ZP-332" value="" style="rounded=0;whiteSpace=wrap;html=1;" vertex="1" parent="1">
          <mxGeometry x="160" y="1160" width="719" height="40" as="geometry" />
        </mxCell>
        <mxCell id="vV5gT7rGuwCmQTf4k3ZP-333" value="&lt;font style=&quot;font-size: 36px&quot;&gt;20&lt;/font&gt;" style="text;html=1;strokeColor=none;fillColor=none;align=center;verticalAlign=middle;whiteSpace=wrap;rounded=0;" vertex="1" parent="1">
          <mxGeometry x="180" y="1170" width="40" height="20" as="geometry" />
        </mxCell>
        <mxCell id="vV5gT7rGuwCmQTf4k3ZP-334" value="" style="rounded=0;whiteSpace=wrap;html=1;" vertex="1" parent="1">
          <mxGeometry x="881" y="1160" width="719" height="40" as="geometry" />
        </mxCell>
        <mxCell id="vV5gT7rGuwCmQTf4k3ZP-335" value="" style="rounded=0;whiteSpace=wrap;html=1;" vertex="1" parent="1">
          <mxGeometry x="1600" y="1160" width="719" height="40" as="geometry" />
        </mxCell>
        <mxCell id="vV5gT7rGuwCmQTf4k3ZP-337" value="" style="endArrow=none;html=1;" edge="1" parent="1">
          <mxGeometry width="50" height="50" relative="1" as="geometry">
            <mxPoint x="2320" y="1160" as="sourcePoint" />
            <mxPoint x="2720" y="1160" as="targetPoint" />
          </mxGeometry>
        </mxCell>
        <mxCell id="vV5gT7rGuwCmQTf4k3ZP-340" value="&lt;span style=&quot;font-size: 36px&quot;&gt;25&lt;/span&gt;" style="text;html=1;strokeColor=none;fillColor=none;align=center;verticalAlign=middle;whiteSpace=wrap;rounded=0;" vertex="1" parent="1">
          <mxGeometry x="900" y="1170" width="40" height="20" as="geometry" />
        </mxCell>
        <mxCell id="vV5gT7rGuwCmQTf4k3ZP-341" value="&lt;span style=&quot;font-size: 36px&quot;&gt;30&lt;/span&gt;" style="text;html=1;strokeColor=none;fillColor=none;align=center;verticalAlign=middle;whiteSpace=wrap;rounded=0;" vertex="1" parent="1">
          <mxGeometry x="1620" y="1170" width="40" height="20" as="geometry" />
        </mxCell>
        <mxCell id="vV5gT7rGuwCmQTf4k3ZP-342" value="&lt;span style=&quot;font-size: 36px&quot;&gt;34&lt;/span&gt;" style="text;html=1;strokeColor=none;fillColor=none;align=center;verticalAlign=middle;whiteSpace=wrap;rounded=0;" vertex="1" parent="1">
          <mxGeometry x="2330" y="1170" width="40" height="20" as="geometry" />
        </mxCell>
        <mxCell id="vV5gT7rGuwCmQTf4k3ZP-343" value="" style="endArrow=classic;html=1;" edge="1" parent="1">
          <mxGeometry width="50" height="50" relative="1" as="geometry">
            <mxPoint x="2720" y="1040" as="sourcePoint" />
            <mxPoint x="2760" y="1040" as="targetPoint" />
          </mxGeometry>
        </mxCell>
        <mxCell id="vV5gT7rGuwCmQTf4k3ZP-344" value="" style="endArrow=classic;html=1;" edge="1" parent="1">
          <mxGeometry width="50" height="50" relative="1" as="geometry">
            <mxPoint x="2720" y="960" as="sourcePoint" />
            <mxPoint x="2760" y="960" as="targetPoint" />
          </mxGeometry>
        </mxCell>
        <mxCell id="vV5gT7rGuwCmQTf4k3ZP-345" value="" style="endArrow=classic;html=1;" edge="1" parent="1">
          <mxGeometry width="50" height="50" relative="1" as="geometry">
            <mxPoint x="2720" y="1120" as="sourcePoint" />
            <mxPoint x="2760" y="1120" as="targetPoint" />
          </mxGeometry>
        </mxCell>
        <mxCell id="vV5gT7rGuwCmQTf4k3ZP-346" value="" style="endArrow=classic;html=1;" edge="1" parent="1">
          <mxGeometry width="50" height="50" relative="1" as="geometry">
            <mxPoint x="2720" y="880" as="sourcePoint" />
            <mxPoint x="2760" y="880" as="targetPoint" />
          </mxGeometry>
        </mxCell>
        <mxCell id="vV5gT7rGuwCmQTf4k3ZP-347" value="" style="endArrow=classic;html=1;" edge="1" parent="1">
          <mxGeometry width="50" height="50" relative="1" as="geometry">
            <mxPoint x="2730" y="1320" as="sourcePoint" />
            <mxPoint x="2770" y="1320" as="targetPoint" />
          </mxGeometry>
        </mxCell>
        <mxCell id="vV5gT7rGuwCmQTf4k3ZP-348" value="" style="endArrow=classic;html=1;" edge="1" parent="1">
          <mxGeometry width="50" height="50" relative="1" as="geometry">
            <mxPoint x="2720" y="1200" as="sourcePoint" />
            <mxPoint x="2760" y="1200" as="targetPoint" />
          </mxGeometry>
        </mxCell>
        <mxCell id="vV5gT7rGuwCmQTf4k3ZP-349" value="" style="endArrow=classic;html=1;" edge="1" parent="1">
          <mxGeometry width="50" height="50" relative="1" as="geometry">
            <mxPoint x="2720" y="1400" as="sourcePoint" />
            <mxPoint x="2760" y="1400" as="targetPoint" />
          </mxGeometry>
        </mxCell>
        <mxCell id="vV5gT7rGuwCmQTf4k3ZP-351" value="" style="endArrow=none;dashed=1;html=1;dashPattern=1 3;strokeWidth=2;entryX=0;entryY=1;entryDx=0;entryDy=0;" edge="1" parent="1">
          <mxGeometry width="50" height="50" relative="1" as="geometry">
            <mxPoint x="639.9999999999999" y="1400" as="sourcePoint" />
            <mxPoint x="639.9999999999999" y="1040" as="targetPoint" />
          </mxGeometry>
        </mxCell>
        <mxCell id="vV5gT7rGuwCmQTf4k3ZP-352" value="" style="endArrow=none;dashed=1;html=1;dashPattern=1 3;strokeWidth=2;entryX=0;entryY=1;entryDx=0;entryDy=0;" edge="1" parent="1">
          <mxGeometry width="50" height="50" relative="1" as="geometry">
            <mxPoint x="479.99999999999994" y="1400" as="sourcePoint" />
            <mxPoint x="479.99999999999994" y="1040" as="targetPoint" />
          </mxGeometry>
        </mxCell>
        <mxCell id="vV5gT7rGuwCmQTf4k3ZP-353" value="" style="endArrow=none;dashed=1;html=1;dashPattern=1 3;strokeWidth=2;entryX=0;entryY=1;entryDx=0;entryDy=0;" edge="1" parent="1">
          <mxGeometry width="50" height="50" relative="1" as="geometry">
            <mxPoint x="1278.33" y="1400" as="sourcePoint" />
            <mxPoint x="1278.33" y="1040" as="targetPoint" />
          </mxGeometry>
        </mxCell>
        <mxCell id="vV5gT7rGuwCmQTf4k3ZP-354" value="" style="endArrow=none;dashed=1;html=1;dashPattern=1 3;strokeWidth=2;entryX=0;entryY=1;entryDx=0;entryDy=0;" edge="1" parent="1">
          <mxGeometry width="50" height="50" relative="1" as="geometry">
            <mxPoint x="1120" y="1400" as="sourcePoint" />
            <mxPoint x="1120" y="1040" as="targetPoint" />
          </mxGeometry>
        </mxCell>
        <mxCell id="vV5gT7rGuwCmQTf4k3ZP-355" value="" style="endArrow=none;dashed=1;html=1;dashPattern=1 3;strokeWidth=2;entryX=0;entryY=1;entryDx=0;entryDy=0;" edge="1" parent="1">
          <mxGeometry width="50" height="50" relative="1" as="geometry">
            <mxPoint x="1920" y="1400" as="sourcePoint" />
            <mxPoint x="1920" y="1040" as="targetPoint" />
          </mxGeometry>
        </mxCell>
        <mxCell id="vV5gT7rGuwCmQTf4k3ZP-356" value="" style="endArrow=none;dashed=1;html=1;dashPattern=1 3;strokeWidth=2;entryX=0;entryY=1;entryDx=0;entryDy=0;" edge="1" parent="1">
          <mxGeometry width="50" height="50" relative="1" as="geometry">
            <mxPoint x="1760" y="1400" as="sourcePoint" />
            <mxPoint x="1760" y="1040" as="targetPoint" />
          </mxGeometry>
        </mxCell>
        <mxCell id="vV5gT7rGuwCmQTf4k3ZP-357" value="" style="endArrow=none;dashed=1;html=1;dashPattern=1 3;strokeWidth=2;entryX=0;entryY=1;entryDx=0;entryDy=0;" edge="1" parent="1">
          <mxGeometry width="50" height="50" relative="1" as="geometry">
            <mxPoint x="2080" y="1090" as="sourcePoint" />
            <mxPoint x="2080" y="1040" as="targetPoint" />
          </mxGeometry>
        </mxCell>
        <mxCell id="vV5gT7rGuwCmQTf4k3ZP-358" value="" style="endArrow=none;dashed=1;html=1;dashPattern=1 3;strokeWidth=2;entryX=0;entryY=1;entryDx=0;entryDy=0;" edge="1" parent="1">
          <mxGeometry width="50" height="50" relative="1" as="geometry">
            <mxPoint x="2240" y="1400" as="sourcePoint" />
            <mxPoint x="2240" y="1040" as="targetPoint" />
          </mxGeometry>
        </mxCell>
        <mxCell id="vV5gT7rGuwCmQTf4k3ZP-360" value="" style="endArrow=none;dashed=1;html=1;dashPattern=1 3;strokeWidth=2;entryX=0;entryY=1;entryDx=0;entryDy=0;exitX=0;exitY=0;exitDx=0;exitDy=0;" edge="1" parent="1">
          <mxGeometry width="50" height="50" relative="1" as="geometry">
            <mxPoint x="2400.0000000000014" y="1160" as="sourcePoint" />
            <mxPoint x="2400" y="1040" as="targetPoint" />
          </mxGeometry>
        </mxCell>
        <mxCell id="vV5gT7rGuwCmQTf4k3ZP-361" value="" style="endArrow=none;html=1;" edge="1" parent="1">
          <mxGeometry width="50" height="50" relative="1" as="geometry">
            <mxPoint x="2400" y="1320" as="sourcePoint" />
            <mxPoint x="2400" y="1280" as="targetPoint" />
          </mxGeometry>
        </mxCell>
        <mxCell id="vV5gT7rGuwCmQTf4k3ZP-362" value="" style="endArrow=none;dashed=1;html=1;dashPattern=1 3;strokeWidth=2;entryX=0;entryY=1;entryDx=0;entryDy=0;" edge="1" parent="1">
          <mxGeometry width="50" height="50" relative="1" as="geometry">
            <mxPoint x="2718" y="1080" as="sourcePoint" />
            <mxPoint x="2718.33" y="1040" as="targetPoint" />
          </mxGeometry>
        </mxCell>
        <mxCell id="vV5gT7rGuwCmQTf4k3ZP-363" value="" style="endArrow=none;html=1;" edge="1" parent="1">
          <mxGeometry width="50" height="50" relative="1" as="geometry">
            <mxPoint x="2720" y="1280" as="sourcePoint" />
            <mxPoint x="2720" y="1240" as="targetPoint" />
          </mxGeometry>
        </mxCell>
        <mxCell id="vV5gT7rGuwCmQTf4k3ZP-364" value="" style="endArrow=none;dashed=1;html=1;dashPattern=1 3;strokeWidth=2;" edge="1" parent="1">
          <mxGeometry width="50" height="50" relative="1" as="geometry">
            <mxPoint x="2720" y="1480" as="sourcePoint" />
            <mxPoint x="2720" y="880" as="targetPoint" />
          </mxGeometry>
        </mxCell>
        <mxCell id="vV5gT7rGuwCmQTf4k3ZP-366" value="" style="endArrow=classic;html=1;" edge="1" parent="1">
          <mxGeometry width="50" height="50" relative="1" as="geometry">
            <mxPoint x="160" y="1480" as="sourcePoint" />
            <mxPoint x="2720" y="1480" as="targetPoint" />
          </mxGeometry>
        </mxCell>
        <mxCell id="vV5gT7rGuwCmQTf4k3ZP-367" value="&lt;font style=&quot;font-size: 36px&quot;&gt;т=143&lt;/font&gt;" style="text;html=1;strokeColor=none;fillColor=none;align=center;verticalAlign=middle;whiteSpace=wrap;rounded=0;" vertex="1" parent="1">
          <mxGeometry x="1160" y="1450" width="40" height="20" as="geometry" />
        </mxCell>
        <mxCell id="vV5gT7rGuwCmQTf4k3ZP-368" value="" style="endArrow=none;html=1;" edge="1" parent="1">
          <mxGeometry width="50" height="50" relative="1" as="geometry">
            <mxPoint x="1758.57" y="959.9999999999998" as="sourcePoint" />
            <mxPoint x="1758.57" y="919.9999999999998" as="targetPoint" />
          </mxGeometry>
        </mxCell>
        <mxCell id="vV5gT7rGuwCmQTf4k3ZP-369" value="" style="endArrow=none;html=1;" edge="1" parent="1">
          <mxGeometry width="50" height="50" relative="1" as="geometry">
            <mxPoint x="2240" y="959.9999999999998" as="sourcePoint" />
            <mxPoint x="2240" y="919.9999999999998" as="targetPoint" />
            <Array as="points">
              <mxPoint x="2240" y="940" />
            </Array>
          </mxGeometry>
        </mxCell>
        <mxCell id="vV5gT7rGuwCmQTf4k3ZP-370" value="" style="endArrow=none;html=1;" edge="1" parent="1">
          <mxGeometry width="50" height="50" relative="1" as="geometry">
            <mxPoint x="2118.57" y="959.9999999999998" as="sourcePoint" />
            <mxPoint x="2118.57" y="919.9999999999998" as="targetPoint" />
          </mxGeometry>
        </mxCell>
        <mxCell id="vV5gT7rGuwCmQTf4k3ZP-371" value="" style="endArrow=none;html=1;" edge="1" parent="1">
          <mxGeometry width="50" height="50" relative="1" as="geometry">
            <mxPoint x="1999.29" y="959.9999999999998" as="sourcePoint" />
            <mxPoint x="1999.29" y="919.9999999999998" as="targetPoint" />
          </mxGeometry>
        </mxCell>
        <mxCell id="vV5gT7rGuwCmQTf4k3ZP-372" value="" style="endArrow=none;html=1;" edge="1" parent="1">
          <mxGeometry width="50" height="50" relative="1" as="geometry">
            <mxPoint x="1879.29" y="959.9999999999998" as="sourcePoint" />
            <mxPoint x="1879.29" y="919.9999999999998" as="targetPoint" />
          </mxGeometry>
        </mxCell>
        <mxCell id="vV5gT7rGuwCmQTf4k3ZP-373" value="" style="endArrow=none;html=1;" edge="1" parent="1">
          <mxGeometry width="50" height="50" relative="1" as="geometry">
            <mxPoint x="2359.29" y="959.9999999999998" as="sourcePoint" />
            <mxPoint x="2359.29" y="919.9999999999998" as="targetPoint" />
          </mxGeometry>
        </mxCell>
        <mxCell id="vV5gT7rGuwCmQTf4k3ZP-374" value="" style="endArrow=none;html=1;" edge="1" parent="1">
          <mxGeometry width="50" height="50" relative="1" as="geometry">
            <mxPoint x="2600" y="959.9999999999998" as="sourcePoint" />
            <mxPoint x="2600" y="919.9999999999998" as="targetPoint" />
          </mxGeometry>
        </mxCell>
        <mxCell id="vV5gT7rGuwCmQTf4k3ZP-375" value="" style="endArrow=none;html=1;" edge="1" parent="1">
          <mxGeometry width="50" height="50" relative="1" as="geometry">
            <mxPoint x="2479.29" y="959.9999999999998" as="sourcePoint" />
            <mxPoint x="2479.29" y="919.9999999999998" as="targetPoint" />
          </mxGeometry>
        </mxCell>
        <mxCell id="vV5gT7rGuwCmQTf4k3ZP-376" value="" style="endArrow=none;html=1;" edge="1" parent="1">
          <mxGeometry width="50" height="50" relative="1" as="geometry">
            <mxPoint x="2718.57" y="959.9999999999998" as="sourcePoint" />
            <mxPoint x="2718.57" y="919.9999999999998" as="targetPoint" />
          </mxGeometry>
        </mxCell>
        <mxCell id="vV5gT7rGuwCmQTf4k3ZP-377" value="" style="endArrow=none;html=1;" edge="1" parent="1">
          <mxGeometry width="50" height="50" relative="1" as="geometry">
            <mxPoint x="1999.2899999999997" y="240" as="sourcePoint" />
            <mxPoint x="1999.2899999999997" y="200" as="targetPoint" />
          </mxGeometry>
        </mxCell>
        <mxCell id="vV5gT7rGuwCmQTf4k3ZP-378" value="" style="endArrow=none;html=1;" edge="1" parent="1">
          <mxGeometry width="50" height="50" relative="1" as="geometry">
            <mxPoint x="1879.2899999999997" y="240" as="sourcePoint" />
            <mxPoint x="1879.2899999999997" y="200" as="targetPoint" />
          </mxGeometry>
        </mxCell>
        <mxCell id="vV5gT7rGuwCmQTf4k3ZP-379" value="" style="endArrow=none;html=1;" edge="1" parent="1">
          <mxGeometry width="50" height="50" relative="1" as="geometry">
            <mxPoint x="1758.5699999999997" y="240" as="sourcePoint" />
            <mxPoint x="1758.5699999999997" y="200" as="targetPoint" />
          </mxGeometry>
        </mxCell>
        <mxCell id="vV5gT7rGuwCmQTf4k3ZP-380" value="" style="endArrow=none;html=1;" edge="1" parent="1">
          <mxGeometry width="50" height="50" relative="1" as="geometry">
            <mxPoint x="2120.29" y="240" as="sourcePoint" />
            <mxPoint x="2120" y="200" as="targetPoint" />
          </mxGeometry>
        </mxCell>
        <mxCell id="vV5gT7rGuwCmQTf4k3ZP-381" value="" style="endArrow=none;html=1;" edge="1" parent="1">
          <mxGeometry width="50" height="50" relative="1" as="geometry">
            <mxPoint x="2840.2900000000004" y="240" as="sourcePoint" />
            <mxPoint x="2840.2900000000004" y="200" as="targetPoint" />
          </mxGeometry>
        </mxCell>
        <mxCell id="vV5gT7rGuwCmQTf4k3ZP-382" value="" style="endArrow=none;html=1;" edge="1" parent="1">
          <mxGeometry width="50" height="50" relative="1" as="geometry">
            <mxPoint x="2720" y="240" as="sourcePoint" />
            <mxPoint x="2720" y="200" as="targetPoint" />
          </mxGeometry>
        </mxCell>
        <mxCell id="vV5gT7rGuwCmQTf4k3ZP-383" value="" style="endArrow=none;html=1;" edge="1" parent="1">
          <mxGeometry width="50" height="50" relative="1" as="geometry">
            <mxPoint x="2601" y="240" as="sourcePoint" />
            <mxPoint x="2602" y="200" as="targetPoint" />
          </mxGeometry>
        </mxCell>
        <mxCell id="vV5gT7rGuwCmQTf4k3ZP-384" value="" style="endArrow=none;html=1;" edge="1" parent="1">
          <mxGeometry width="50" height="50" relative="1" as="geometry">
            <mxPoint x="2480.29" y="240" as="sourcePoint" />
            <mxPoint x="2480.29" y="200" as="targetPoint" />
          </mxGeometry>
        </mxCell>
        <mxCell id="vV5gT7rGuwCmQTf4k3ZP-385" value="" style="endArrow=none;html=1;" edge="1" parent="1">
          <mxGeometry width="50" height="50" relative="1" as="geometry">
            <mxPoint x="2360.29" y="240" as="sourcePoint" />
            <mxPoint x="2360.29" y="200" as="targetPoint" />
          </mxGeometry>
        </mxCell>
        <mxCell id="vV5gT7rGuwCmQTf4k3ZP-386" value="" style="endArrow=none;html=1;" edge="1" parent="1">
          <mxGeometry width="50" height="50" relative="1" as="geometry">
            <mxPoint x="2240" y="240" as="sourcePoint" />
            <mxPoint x="2240" y="200" as="targetPoint" />
          </mxGeometry>
        </mxCell>
        <mxCell id="vV5gT7rGuwCmQTf4k3ZP-387" value="" style="endArrow=none;html=1;" edge="1" parent="1">
          <mxGeometry width="50" height="50" relative="1" as="geometry">
            <mxPoint x="3079.5699999999997" y="240" as="sourcePoint" />
            <mxPoint x="3079.5699999999997" y="200" as="targetPoint" />
          </mxGeometry>
        </mxCell>
        <mxCell id="vV5gT7rGuwCmQTf4k3ZP-388" value="" style="endArrow=none;html=1;" edge="1" parent="1">
          <mxGeometry width="50" height="50" relative="1" as="geometry">
            <mxPoint x="2960.2899999999995" y="240" as="sourcePoint" />
            <mxPoint x="2960.2899999999995" y="200" as="targetPoint" />
          </mxGeometry>
        </mxCell>
        <mxCell id="vV5gT7rGuwCmQTf4k3ZP-389" value="" style="endArrow=none;html=1;" edge="1" parent="1">
          <mxGeometry width="50" height="50" relative="1" as="geometry">
            <mxPoint x="3319.2899999999995" y="240" as="sourcePoint" />
            <mxPoint x="3319.2899999999995" y="200" as="targetPoint" />
          </mxGeometry>
        </mxCell>
        <mxCell id="vV5gT7rGuwCmQTf4k3ZP-390" value="" style="endArrow=none;html=1;" edge="1" parent="1">
          <mxGeometry width="50" height="50" relative="1" as="geometry">
            <mxPoint x="3199.2899999999995" y="240" as="sourcePoint" />
            <mxPoint x="3199.2899999999995" y="200" as="targetPoint" />
          </mxGeometry>
        </mxCell>
        <mxCell id="vV5gT7rGuwCmQTf4k3ZP-391" value="" style="endArrow=classic;html=1;" edge="1" parent="1">
          <mxGeometry width="50" height="50" relative="1" as="geometry">
            <mxPoint x="3400" y="720" as="sourcePoint" />
            <mxPoint x="200" y="720" as="targetPoint" />
          </mxGeometry>
        </mxCell>
        <mxCell id="vV5gT7rGuwCmQTf4k3ZP-392" value="" style="endArrow=classic;html=1;" edge="1" parent="1">
          <mxGeometry width="50" height="50" relative="1" as="geometry">
            <mxPoint x="3400" y="400" as="sourcePoint" />
            <mxPoint x="3440" y="400" as="targetPoint" />
          </mxGeometry>
        </mxCell>
        <mxCell id="vV5gT7rGuwCmQTf4k3ZP-393" value="" style="endArrow=classic;html=1;" edge="1" parent="1">
          <mxGeometry width="50" height="50" relative="1" as="geometry">
            <mxPoint x="3400" y="318.57" as="sourcePoint" />
            <mxPoint x="3440" y="318.57" as="targetPoint" />
          </mxGeometry>
        </mxCell>
        <mxCell id="vV5gT7rGuwCmQTf4k3ZP-394" value="" style="endArrow=classic;html=1;" edge="1" parent="1">
          <mxGeometry width="50" height="50" relative="1" as="geometry">
            <mxPoint x="3400" y="480" as="sourcePoint" />
            <mxPoint x="3440" y="480" as="targetPoint" />
          </mxGeometry>
        </mxCell>
        <mxCell id="vV5gT7rGuwCmQTf4k3ZP-395" value="" style="endArrow=classic;html=1;" edge="1" parent="1">
          <mxGeometry width="50" height="50" relative="1" as="geometry">
            <mxPoint x="3400" y="680" as="sourcePoint" />
            <mxPoint x="3440" y="680" as="targetPoint" />
          </mxGeometry>
        </mxCell>
        <mxCell id="vV5gT7rGuwCmQTf4k3ZP-396" value="" style="endArrow=classic;html=1;" edge="1" parent="1">
          <mxGeometry width="50" height="50" relative="1" as="geometry">
            <mxPoint x="3400" y="600" as="sourcePoint" />
            <mxPoint x="3440" y="600" as="targetPoint" />
          </mxGeometry>
        </mxCell>
        <mxCell id="vV5gT7rGuwCmQTf4k3ZP-397" value="" style="endArrow=classic;html=1;" edge="1" parent="1">
          <mxGeometry width="50" height="50" relative="1" as="geometry">
            <mxPoint x="3400" y="240" as="sourcePoint" />
            <mxPoint x="3440" y="240" as="targetPoint" />
          </mxGeometry>
        </mxCell>
        <mxCell id="vV5gT7rGuwCmQTf4k3ZP-398" value="" style="endArrow=classic;html=1;" edge="1" parent="1">
          <mxGeometry width="50" height="50" relative="1" as="geometry">
            <mxPoint x="3410" y="160" as="sourcePoint" />
            <mxPoint x="3450" y="160" as="targetPoint" />
          </mxGeometry>
        </mxCell>
      </root>
    </mxGraphModel>
  </diagram>
</mxfile>
